<svg id="svg" version="1.1" xmlns="http://www.w3.org/2000/svg" xmlns:xlink="http://www.w3.org/1999/xlink" width="400" height="118.84057971014494" viewBox="0, 0, 400,118.84057971014494"><g id="svgg"><path id="path0" d="M0.000 0.500 C 0.000 0.815,0.085 1.000,0.231 1.000 C 0.357 1.000,0.500 1.150,0.548 1.333 C 0.596 1.517,0.755 1.667,0.901 1.667 C 1.047 1.667,1.176 1.742,1.188 1.833 C 1.199 1.925,1.218 2.069,1.229 2.153 C 1.263 2.402,1.500 2.574,1.500 2.349 C 1.500 2.082,1.886 2.454,2.046 2.875 C 2.107 3.035,2.239 3.167,2.340 3.167 C 2.611 3.167,3.003 3.606,2.867 3.757 C 2.803 3.828,2.881 3.839,3.042 3.782 C 3.310 3.685,3.427 3.908,3.353 4.375 C 3.342 4.444,3.446 4.509,3.583 4.521 C 4.064 4.561,4.140 4.584,4.278 4.735 C 4.359 4.824,4.314 4.836,4.167 4.764 C 4.029 4.697,4.062 4.760,4.240 4.904 C 4.533 5.141,4.484 5.247,4.113 5.182 C 4.037 5.169,4.018 5.228,4.071 5.314 C 4.124 5.399,4.330 5.426,4.528 5.374 C 4.818 5.298,4.868 5.336,4.780 5.565 C 4.715 5.735,4.737 5.809,4.835 5.749 C 4.926 5.693,5.000 5.726,5.000 5.823 C 5.000 5.921,5.107 6.000,5.239 6.000 C 5.370 6.000,5.523 6.143,5.578 6.317 C 5.633 6.491,5.866 6.681,6.096 6.738 C 6.326 6.796,6.473 6.908,6.424 6.987 C 6.375 7.067,6.448 7.175,6.586 7.228 C 6.723 7.281,6.923 7.514,7.028 7.745 C 7.134 7.977,7.303 8.167,7.404 8.167 C 7.505 8.167,7.662 8.335,7.752 8.542 C 7.843 8.748,8.029 8.917,8.167 8.917 C 8.321 8.918,8.418 9.077,8.420 9.334 C 8.422 9.643,8.512 9.750,8.770 9.750 C 9.146 9.750,9.992 10.461,9.997 10.780 C 9.999 10.889,10.157 11.027,10.349 11.088 C 10.573 11.159,10.670 11.301,10.622 11.485 C 10.568 11.691,10.646 11.768,10.899 11.761 C 11.134 11.754,11.242 11.846,11.227 12.042 C 11.214 12.202,11.275 12.333,11.362 12.333 C 11.449 12.333,11.465 12.421,11.399 12.528 C 11.318 12.660,11.370 12.688,11.561 12.615 C 11.760 12.539,11.899 12.629,12.032 12.920 C 12.135 13.147,12.358 13.333,12.527 13.333 C 12.742 13.333,12.833 13.456,12.833 13.745 C 12.833 14.042,12.903 14.130,13.083 14.060 C 13.306 13.975,13.412 14.162,13.354 14.539 C 13.344 14.606,13.522 14.708,13.751 14.765 C 13.980 14.823,14.167 14.976,14.167 15.106 C 14.167 15.235,14.355 15.413,14.585 15.500 C 14.814 15.588,14.983 15.752,14.960 15.865 C 14.936 15.978,15.081 16.146,15.281 16.237 C 15.482 16.329,15.681 16.538,15.724 16.702 C 15.767 16.866,15.920 17.000,16.065 17.000 C 16.209 17.000,16.373 17.185,16.430 17.411 L 16.533 17.822 34.225 17.803 C 43.955 17.792,51.542 17.732,51.083 17.668 L 50.250 17.552 51.042 17.526 C 51.477 17.512,51.833 17.434,51.833 17.353 C 51.833 17.179,52.439 16.995,52.572 17.128 C 52.623 17.178,52.571 17.339,52.457 17.485 C 52.274 17.719,52.284 17.723,52.540 17.523 C 52.699 17.398,52.789 17.229,52.738 17.148 C 52.584 16.898,52.946 16.984,53.167 17.250 C 53.337 17.455,53.325 17.500,53.104 17.500 C 52.955 17.500,52.833 17.575,52.833 17.667 C 52.833 17.758,52.927 17.815,53.042 17.792 C 53.161 17.768,53.257 17.928,53.266 18.167 L 53.282 18.583 53.192 18.167 C 53.118 17.829,53.081 17.892,52.992 18.500 L 52.883 19.250 52.858 18.542 C 52.845 18.152,52.758 17.833,52.667 17.833 C 52.561 17.833,52.486 19.372,52.463 22.042 L 52.426 26.250 52.338 22.250 L 52.250 18.250 52.124 23.167 C 51.898 31.951,51.768 112.833,51.979 112.833 C 52.082 112.833,52.167 112.913,52.167 113.010 C 52.167 113.107,52.073 113.132,51.958 113.066 C 51.839 112.998,51.809 113.011,51.887 113.096 C 52.028 113.250,52.096 113.265,52.875 113.308 C 53.214 113.327,53.333 113.420,53.333 113.667 C 53.333 113.850,53.390 114.010,53.458 114.021 C 53.527 114.033,53.745 114.060,53.944 114.081 C 54.577 114.149,54.832 114.310,54.729 114.577 C 54.657 114.765,54.741 114.833,55.046 114.833 C 55.321 114.833,55.491 114.946,55.548 115.167 C 55.615 115.422,55.776 115.500,56.234 115.500 C 56.775 115.500,56.914 115.618,56.857 116.029 C 56.849 116.091,57.070 116.192,57.349 116.254 C 57.629 116.315,57.815 116.407,57.765 116.458 C 57.620 116.603,58.212 116.989,58.588 116.995 C 58.774 116.998,59.035 117.150,59.167 117.333 C 59.321 117.548,59.598 117.667,59.942 117.667 C 60.370 117.667,60.487 117.742,60.530 118.042 C 60.564 118.283,60.717 118.436,60.958 118.470 C 61.165 118.499,61.333 118.593,61.333 118.678 C 61.333 118.764,61.783 118.833,62.333 118.833 C 62.889 118.833,63.333 118.759,63.333 118.667 C 63.333 118.575,63.521 118.500,63.750 118.500 C 63.979 118.500,64.158 118.444,64.147 118.375 C 64.059 117.821,64.194 117.667,64.766 117.667 C 65.224 117.667,65.385 117.589,65.452 117.333 C 65.508 117.118,65.679 117.000,65.936 117.000 C 66.213 117.000,66.333 116.906,66.333 116.688 C 66.333 116.452,66.498 116.350,67.008 116.268 C 67.385 116.208,67.638 116.088,67.581 115.997 C 67.526 115.907,67.564 115.833,67.667 115.833 C 67.769 115.833,67.807 115.758,67.750 115.667 C 67.692 115.572,67.832 115.500,68.073 115.500 C 68.389 115.500,68.500 115.413,68.500 115.167 C 68.500 114.929,68.611 114.833,68.885 114.833 C 69.097 114.833,69.431 114.683,69.628 114.500 C 69.825 114.317,70.100 114.167,70.240 114.167 C 70.379 114.167,70.541 113.979,70.598 113.750 C 70.665 113.483,70.820 113.333,71.029 113.333 C 71.480 113.333,72.030 113.017,71.911 112.825 C 71.858 112.738,71.904 112.667,72.015 112.667 C 72.414 112.667,72.084 65.695,71.683 65.263 C 71.375 64.932,71.354 64.427,71.193 53.920 C 71.011 42.076,71.004 42.208,71.859 41.069 C 71.934 40.970,71.906 37.532,71.796 33.430 C 71.687 29.328,71.543 26.109,71.477 26.277 C 71.411 26.446,71.337 26.508,71.314 26.417 C 71.290 26.325,71.224 26.925,71.167 27.750 L 71.063 29.250 71.020 27.500 C 70.983 26.013,70.719 24.368,70.678 25.375 C 70.660 25.840,69.167 25.799,69.167 25.333 C 69.167 25.056,69.056 25.000,68.500 25.000 C 67.944 25.000,67.833 24.944,67.833 24.667 C 67.833 24.422,67.722 24.333,67.417 24.333 C 67.083 24.333,67.000 24.250,67.000 23.917 C 67.000 23.542,66.933 23.500,66.333 23.500 C 65.778 23.500,65.667 23.444,65.667 23.167 C 65.667 22.883,65.556 22.833,64.917 22.833 C 64.278 22.833,64.167 22.784,64.167 22.500 C 64.167 22.278,64.056 22.167,63.833 22.167 C 63.589 22.167,63.500 22.056,63.500 21.750 C 63.500 21.367,63.439 21.333,62.750 21.333 C 62.111 21.333,62.000 21.284,62.000 21.000 C 62.000 20.716,61.889 20.667,61.250 20.667 C 60.611 20.667,60.500 20.617,60.500 20.333 C 60.500 20.056,60.389 20.000,59.833 20.000 C 59.233 20.000,59.167 19.958,59.167 19.583 C 59.167 19.250,59.083 19.167,58.750 19.167 C 58.444 19.167,58.333 19.078,58.333 18.833 C 58.333 18.556,58.222 18.500,57.667 18.500 C 57.111 18.500,57.000 18.444,57.000 18.167 C 57.000 17.883,56.889 17.833,56.250 17.833 C 55.561 17.833,55.500 17.799,55.500 17.417 C 55.500 17.034,55.439 17.000,54.750 17.000 C 54.111 17.000,54.000 16.951,54.000 16.667 C 54.000 16.444,53.889 16.333,53.667 16.333 C 53.422 16.333,53.333 16.222,53.333 15.917 C 53.333 15.534,53.272 15.500,52.583 15.500 C 51.944 15.500,51.833 15.451,51.833 15.167 C 51.833 14.883,51.722 14.833,51.083 14.833 C 50.444 14.833,50.333 14.784,50.333 14.500 C 50.333 14.222,50.222 14.167,49.667 14.167 C 49.067 14.167,49.000 14.125,49.000 13.750 C 49.000 13.417,48.917 13.333,48.583 13.333 C 48.278 13.333,48.167 13.244,48.167 13.000 C 48.167 12.722,48.056 12.667,47.500 12.667 C 46.944 12.667,46.833 12.611,46.833 12.333 C 46.833 12.049,46.722 12.000,46.083 12.000 C 45.394 12.000,45.333 11.966,45.333 11.583 C 45.333 11.278,45.244 11.167,45.000 11.167 C 44.778 11.167,44.667 11.056,44.667 10.833 C 44.667 10.549,44.556 10.500,43.917 10.500 C 43.278 10.500,43.167 10.451,43.167 10.167 C 43.167 9.883,43.056 9.833,42.417 9.833 C 41.728 9.833,41.667 9.799,41.667 9.417 C 41.667 9.042,41.600 9.000,41.000 9.000 C 40.444 9.000,40.333 8.944,40.333 8.667 C 40.333 8.422,40.222 8.333,39.917 8.333 C 39.611 8.333,39.500 8.244,39.500 8.000 C 39.500 7.722,39.389 7.667,38.833 7.667 C 38.233 7.667,38.167 7.625,38.167 7.250 C 38.167 6.867,38.106 6.833,37.417 6.833 C 36.778 6.833,36.667 6.784,36.667 6.500 C 36.667 6.216,36.556 6.167,35.917 6.167 C 35.278 6.167,35.167 6.117,35.167 5.833 C 35.167 5.611,35.056 5.500,34.833 5.500 C 34.589 5.500,34.500 5.389,34.500 5.083 C 34.500 4.701,34.439 4.667,33.750 4.667 C 33.111 4.667,33.000 4.617,33.000 4.333 C 33.000 4.049,32.889 4.000,32.250 4.000 C 31.611 4.000,31.500 3.951,31.500 3.667 C 31.500 3.389,31.389 3.333,30.833 3.333 C 30.233 3.333,30.167 3.292,30.167 2.917 C 30.167 2.583,30.083 2.500,29.750 2.500 C 29.444 2.500,29.333 2.411,29.333 2.167 C 29.333 1.889,29.222 1.833,28.667 1.833 C 28.111 1.833,28.000 1.778,28.000 1.500 C 28.000 1.216,27.889 1.167,27.250 1.167 C 26.504 1.167,26.500 1.164,26.500 0.583 L 26.500 0.000 13.250 0.000 L 0.000 0.000 0.000 0.500 M74.948 17.791 C 76.523 17.819,79.148 17.819,80.781 17.791 C 82.414 17.764,81.125 17.742,77.917 17.742 C 74.708 17.742,73.372 17.764,74.948 17.791 M17.208 25.914 C 17.043 26.103,17.000 33.009,17.000 59.243 L 17.000 92.333 17.417 92.333 C 17.722 92.333,17.833 92.422,17.833 92.667 C 17.833 92.850,17.890 93.005,17.958 93.011 C 18.993 93.107,19.445 93.351,19.229 93.700 C 19.184 93.774,19.334 93.833,19.562 93.833 C 19.831 93.833,20.015 93.951,20.083 94.167 C 20.162 94.415,20.336 94.500,20.761 94.500 C 21.210 94.500,21.333 94.567,21.333 94.814 C 21.333 95.134,21.753 95.327,22.458 95.331 C 22.683 95.332,22.833 95.436,22.833 95.589 C 22.833 95.729,22.965 95.893,23.125 95.953 C 23.285 96.012,23.515 96.198,23.634 96.364 C 23.771 96.554,24.062 96.667,24.415 96.667 C 24.831 96.667,25.005 96.753,25.083 97.000 C 25.179 97.303,25.365 97.407,25.708 97.353 C 25.777 97.342,25.833 97.403,25.833 97.488 C 25.833 97.784,26.360 98.167,26.767 98.167 C 27.021 98.167,27.223 98.290,27.297 98.490 C 27.363 98.668,27.473 98.818,27.542 98.823 C 27.610 98.829,27.892 98.833,28.167 98.833 C 28.558 98.833,28.667 98.907,28.667 99.172 C 28.667 99.358,28.798 99.560,28.958 99.621 C 29.306 99.753,29.679 100.098,29.581 100.197 C 29.542 100.236,29.780 100.275,30.110 100.285 C 30.685 100.301,31.070 100.586,30.896 100.867 C 30.851 100.940,31.156 101.000,31.573 101.000 C 32.225 101.000,32.333 101.048,32.333 101.337 C 32.333 101.546,32.496 101.737,32.760 101.837 C 32.995 101.926,33.146 102.066,33.095 102.147 C 32.996 102.309,33.535 102.494,34.113 102.498 C 34.363 102.499,34.494 102.618,34.530 102.875 C 34.573 103.174,34.707 103.260,35.191 103.301 C 35.628 103.337,35.823 103.443,35.884 103.676 C 35.934 103.866,36.112 104.000,36.316 104.000 C 36.507 104.000,36.758 104.150,36.872 104.333 C 36.998 104.536,37.261 104.667,37.540 104.667 C 37.956 104.667,38.027 104.739,37.988 105.118 C 37.970 105.287,38.504 105.475,39.042 105.488 C 39.337 105.496,39.500 105.591,39.500 105.755 C 39.500 105.896,39.626 106.059,39.779 106.117 C 39.932 106.176,40.195 106.362,40.362 106.529 C 40.530 106.696,40.886 106.833,41.155 106.833 C 41.535 106.833,41.655 106.917,41.697 107.208 C 41.731 107.449,41.884 107.602,42.125 107.637 C 42.331 107.666,42.500 107.793,42.500 107.918 C 42.500 108.044,42.587 108.201,42.692 108.266 C 42.812 108.340,42.840 108.312,42.766 108.192 C 42.625 107.965,42.864 107.934,43.092 108.150 C 43.179 108.233,43.400 108.328,43.583 108.361 C 43.767 108.394,43.917 108.533,43.917 108.669 C 43.918 108.914,44.005 108.944,44.857 108.981 C 45.173 108.995,45.325 109.112,45.396 109.396 C 45.487 109.758,45.576 109.789,46.456 109.771 L 47.417 109.750 47.417 99.333 L 47.417 88.917 46.708 88.865 C 46.032 88.816,45.892 88.673,45.981 88.122 C 45.993 88.051,45.806 88.029,45.567 88.072 C 45.236 88.132,45.111 88.073,45.046 87.824 C 44.987 87.597,44.764 87.466,44.317 87.395 C 43.956 87.337,43.717 87.219,43.774 87.127 C 43.921 86.890,43.500 86.672,42.887 86.669 C 42.465 86.667,42.346 86.590,42.303 86.292 C 42.269 86.051,42.116 85.898,41.875 85.863 C 41.537 85.815,41.423 85.651,41.480 85.292 C 41.491 85.223,41.444 85.176,41.375 85.186 C 40.752 85.285,40.177 85.129,40.084 84.837 C 40.027 84.655,39.928 84.514,39.865 84.523 C 39.193 84.619,38.667 84.469,38.667 84.181 C 38.667 83.940,38.507 83.836,38.007 83.751 C 37.565 83.677,37.314 83.534,37.246 83.320 C 37.190 83.144,37.034 83.000,36.900 83.000 C 36.766 83.000,36.614 82.890,36.563 82.756 C 36.511 82.622,36.327 82.467,36.153 82.412 C 35.844 82.314,35.835 81.652,35.793 54.483 C 35.755 29.959,35.720 26.636,35.500 26.496 C 35.362 26.410,35.306 26.337,35.373 26.336 C 35.441 26.334,35.370 26.186,35.216 26.006 C 34.842 25.569,17.586 25.481,17.208 25.914 M94.083 25.794 C 93.992 25.862,93.917 26.029,93.917 26.167 C 93.917 26.304,93.748 26.441,93.542 26.470 C 93.301 26.504,93.167 26.638,93.167 26.845 C 93.167 27.146,92.926 27.238,92.208 27.211 C 92.094 27.207,92.000 27.275,92.000 27.362 C 92.000 27.449,91.925 27.473,91.833 27.417 C 91.742 27.360,91.667 27.431,91.667 27.573 C 91.667 27.716,91.556 27.833,91.420 27.833 C 91.284 27.833,91.126 28.021,91.068 28.250 C 90.968 28.650,90.532 28.787,89.706 28.679 C 89.590 28.663,89.505 28.711,89.517 28.784 C 89.571 29.102,89.490 29.498,89.375 29.480 C 89.041 29.427,88.837 29.520,88.875 29.708 C 88.898 29.826,88.716 29.940,88.458 29.969 C 88.206 29.998,88.000 30.092,88.000 30.178 C 88.000 30.263,87.852 30.333,87.672 30.333 C 87.453 30.333,87.375 30.414,87.437 30.576 C 87.499 30.738,87.387 30.855,87.098 30.928 C 86.836 30.994,86.667 31.153,86.667 31.333 C 86.667 31.496,86.573 31.626,86.458 31.622 C 85.961 31.603,85.619 31.675,85.721 31.776 C 85.930 31.986,85.456 32.333,84.962 32.333 C 84.583 32.333,84.488 32.394,84.562 32.589 C 84.652 32.823,83.972 33.267,83.631 33.196 C 83.566 33.182,83.551 33.273,83.599 33.397 C 83.647 33.522,83.565 33.670,83.418 33.727 C 83.265 33.785,83.192 33.760,83.249 33.668 C 83.304 33.579,83.121 33.636,82.842 33.795 C 82.563 33.954,82.335 34.145,82.334 34.220 C 82.334 34.296,82.221 34.470,82.083 34.607 C 81.946 34.745,81.833 34.777,81.833 34.679 C 81.833 34.580,81.746 34.500,81.639 34.500 C 81.532 34.500,81.493 34.549,81.553 34.609 C 81.613 34.668,81.550 34.799,81.414 34.900 C 81.279 35.001,81.151 35.290,81.131 35.542 C 81.110 35.794,81.042 36.000,80.979 36.000 C 80.916 36.000,80.904 36.150,80.952 36.333 C 81.008 36.550,80.957 36.667,80.805 36.667 C 80.677 36.667,80.571 36.817,80.571 37.000 C 80.571 37.183,80.630 37.333,80.702 37.333 C 80.774 37.333,80.833 41.950,80.833 47.593 C 80.833 53.590,80.771 57.815,80.684 57.761 C 80.602 57.710,80.495 57.772,80.447 57.899 C 80.385 58.060,80.455 58.104,80.679 58.045 C 80.856 57.999,81.002 57.876,81.006 57.772 C 81.009 57.668,81.152 57.752,81.324 57.958 C 81.496 58.165,81.718 58.333,81.818 58.333 C 81.918 58.333,82.000 58.421,82.000 58.528 C 82.000 58.635,82.048 58.674,82.107 58.615 C 82.166 58.556,82.110 58.381,81.982 58.225 C 81.775 57.973,81.788 57.952,82.099 58.032 C 82.329 58.091,82.514 58.016,82.642 57.811 C 82.749 57.640,82.993 57.500,83.184 57.500 C 83.391 57.500,83.566 57.366,83.618 57.167 C 83.690 56.891,84.165 56.712,84.391 56.875 C 84.518 56.967,84.990 56.452,84.905 56.314 C 84.855 56.233,84.939 56.167,85.091 56.167 C 85.244 56.167,85.516 55.979,85.696 55.750 C 85.877 55.521,86.123 55.333,86.244 55.333 C 86.365 55.333,86.509 55.216,86.564 55.073 C 86.619 54.929,86.733 54.855,86.818 54.907 C 86.902 54.959,86.997 54.929,87.027 54.839 C 87.058 54.750,87.271 54.645,87.500 54.607 C 87.729 54.569,87.897 54.453,87.874 54.349 C 87.850 54.245,88.016 54.076,88.241 53.974 C 88.467 53.871,88.683 53.666,88.723 53.518 C 88.762 53.371,88.803 59.791,88.814 67.786 C 88.830 80.178,88.799 82.310,88.600 82.233 C 88.472 82.184,88.322 82.217,88.267 82.306 C 88.211 82.396,88.025 82.432,87.852 82.387 C 87.679 82.341,87.480 82.397,87.410 82.511 C 87.322 82.653,87.350 82.676,87.500 82.583 C 87.648 82.492,87.678 82.513,87.593 82.651 C 87.524 82.763,87.287 82.922,87.067 83.006 C 86.847 83.090,86.667 83.273,86.667 83.413 C 86.667 83.592,86.495 83.667,86.080 83.667 C 85.622 83.667,85.453 83.755,85.311 84.066 C 85.136 84.450,84.307 84.773,83.995 84.580 C 83.919 84.533,83.809 84.646,83.751 84.831 C 83.692 85.016,83.499 85.167,83.322 85.167 C 83.111 85.167,83.000 85.282,83.000 85.500 C 83.000 85.815,82.760 85.908,82.031 85.876 C 81.910 85.871,81.729 86.047,81.629 86.267 C 81.523 86.499,81.301 86.669,81.098 86.672 C 80.694 86.678,80.121 87.065,80.280 87.225 C 80.378 87.322,79.793 87.409,79.446 87.349 C 79.370 87.336,79.347 87.387,79.393 87.462 C 79.572 87.752,79.184 88.033,78.605 88.033 C 78.273 88.033,78.043 88.101,78.094 88.183 C 78.145 88.266,78.107 88.333,78.010 88.333 C 77.913 88.333,77.833 88.446,77.833 88.583 C 77.833 88.799,77.209 88.940,76.632 88.855 C 76.567 88.846,76.510 93.521,76.504 99.244 L 76.493 109.650 77.054 109.755 C 77.985 109.930,78.583 109.798,78.583 109.417 C 78.583 109.150,78.712 109.073,79.227 109.031 C 79.696 108.992,79.893 108.890,79.955 108.656 C 80.001 108.478,80.180 108.324,80.353 108.313 C 80.925 108.275,80.987 108.252,81.330 107.958 C 81.517 107.798,81.782 107.667,81.919 107.667 C 82.072 107.667,82.167 107.508,82.167 107.250 C 82.167 106.867,82.228 106.833,82.917 106.833 C 83.556 106.833,83.667 106.784,83.667 106.500 C 83.667 106.199,84.006 106.062,84.542 106.147 C 84.610 106.158,84.667 106.088,84.667 105.991 C 84.667 105.895,84.929 105.707,85.250 105.573 C 85.639 105.410,85.833 105.219,85.833 104.998 C 85.833 104.743,85.946 104.667,86.320 104.667 C 86.942 104.667,87.358 104.507,87.238 104.315 C 87.187 104.232,87.282 104.122,87.448 104.070 C 87.614 104.018,87.889 103.901,88.059 103.809 C 88.274 103.693,88.335 103.696,88.259 103.819 C 88.193 103.926,88.248 103.958,88.399 103.901 C 88.536 103.848,88.672 103.680,88.701 103.528 C 88.730 103.375,88.903 103.250,89.086 103.250 C 89.297 103.250,89.435 103.121,89.467 102.894 C 89.518 102.538,90.348 102.220,90.684 102.427 C 90.766 102.478,90.833 102.401,90.833 102.256 C 90.833 102.111,91.021 101.920,91.250 101.833 C 91.505 101.736,91.667 101.544,91.667 101.337 C 91.667 101.056,91.775 101.000,92.322 101.000 C 92.831 101.000,93.001 100.926,93.083 100.667 C 93.163 100.416,93.336 100.333,93.777 100.333 C 94.215 100.333,94.386 100.252,94.448 100.015 C 94.493 99.841,94.679 99.659,94.861 99.611 C 95.043 99.564,95.232 99.369,95.282 99.179 C 95.354 98.904,95.505 98.833,96.019 98.833 C 96.556 98.833,96.667 98.776,96.667 98.500 C 96.667 98.230,96.778 98.167,97.249 98.167 C 97.650 98.167,97.895 98.063,98.039 97.833 C 98.153 97.650,98.379 97.500,98.540 97.500 C 98.742 97.500,98.833 97.370,98.833 97.083 C 98.833 96.707,98.899 96.667,99.516 96.667 C 100.058 96.667,100.216 96.598,100.285 96.333 C 100.361 96.041,100.896 95.882,101.262 96.042 C 101.314 96.065,101.433 95.948,101.525 95.782 C 101.618 95.617,101.875 95.413,102.097 95.328 C 102.340 95.236,102.500 95.041,102.500 94.837 C 102.500 94.576,102.609 94.500,102.986 94.500 C 103.641 94.500,104.000 94.346,104.000 94.066 C 104.000 93.868,104.432 93.744,104.875 93.814 C 104.944 93.824,105.000 93.754,105.000 93.657 C 105.000 93.560,105.075 93.527,105.167 93.583 C 105.258 93.640,105.333 93.569,105.333 93.427 C 105.333 93.193,105.526 93.093,105.872 93.146 C 105.939 93.156,106.041 92.978,106.098 92.749 C 106.197 92.358,106.537 92.231,107.264 92.315 C 107.532 92.345,107.521 93.604,107.490 66.065 L 107.461 40.380 107.844 39.940 C 108.055 39.698,108.365 39.500,108.534 39.500 C 108.710 39.500,108.911 39.319,109.003 39.076 C 109.106 38.806,109.271 38.669,109.457 38.701 C 109.653 38.734,109.768 38.626,109.803 38.375 C 109.841 38.107,109.969 38.000,110.252 38.000 C 110.469 38.000,110.694 37.924,110.752 37.831 C 110.809 37.737,110.926 37.704,111.012 37.757 C 111.097 37.810,111.167 37.744,111.167 37.611 C 111.167 37.478,111.354 37.322,111.583 37.265 C 111.813 37.207,112.000 37.049,112.000 36.913 C 112.000 36.696,112.188 36.598,112.524 36.641 C 112.583 36.649,112.824 36.476,113.060 36.257 C 113.295 36.039,113.622 35.832,113.786 35.799 C 113.949 35.765,114.073 35.609,114.060 35.452 C 114.044 35.256,114.161 35.167,114.435 35.167 C 114.722 35.167,114.833 35.074,114.833 34.833 C 114.833 34.611,114.944 34.500,115.167 34.500 C 115.350 34.500,115.500 34.425,115.500 34.333 C 115.500 34.242,115.652 34.167,115.839 34.167 C 116.025 34.167,116.219 34.057,116.271 33.923 C 116.322 33.789,116.507 33.634,116.682 33.578 C 116.857 33.523,117.000 33.378,117.000 33.257 C 117.000 33.135,117.187 32.989,117.416 32.932 C 117.644 32.874,117.823 32.773,117.813 32.705 C 117.749 32.294,117.888 32.167,118.397 32.167 C 118.813 32.167,118.983 32.083,119.045 31.847 C 119.091 31.671,119.305 31.503,119.522 31.472 C 119.777 31.436,119.908 31.313,119.894 31.125 C 119.881 30.965,119.993 30.822,120.144 30.808 C 120.294 30.794,120.492 30.765,120.583 30.744 C 120.675 30.723,120.825 30.688,120.917 30.666 C 121.008 30.645,121.149 30.639,121.230 30.654 C 121.310 30.669,121.337 30.532,121.289 30.350 C 121.221 30.089,121.296 30.008,121.643 29.968 C 121.892 29.939,122.065 29.824,122.040 29.705 C 122.017 29.588,122.186 29.421,122.415 29.334 C 122.645 29.246,122.833 29.067,122.833 28.935 C 122.833 28.786,123.084 28.654,123.500 28.583 C 123.996 28.500,124.167 28.392,124.167 28.164 C 124.167 27.972,124.308 27.836,124.542 27.803 C 124.944 27.746,125.133 26.886,124.925 26.058 L 124.827 25.667 109.538 25.669 C 101.130 25.671,94.175 25.727,94.083 25.794 M181.075 33.794 C 180.705 34.054,180.852 34.968,181.281 35.076 C 181.757 35.196,181.932 35.110,182.038 34.705 C 182.227 33.985,181.621 33.412,181.075 33.794 M81.000 58.518 C 80.789 58.670,80.795 58.683,81.042 58.604 C 81.202 58.553,81.333 58.581,81.333 58.667 C 81.333 58.753,81.452 58.777,81.597 58.722 C 81.810 58.640,81.818 58.593,81.639 58.479 C 81.354 58.298,81.301 58.302,81.000 58.518 " stroke="none" fill="#2195d2" fill-rule="evenodd"></path><path id="path1" d="M26.500 0.583 C 26.500 1.164,26.504 1.167,27.250 1.167 C 27.889 1.167,28.000 1.216,28.000 1.500 C 28.000 1.778,28.111 1.833,28.667 1.833 C 29.222 1.833,29.333 1.889,29.333 2.167 C 29.333 2.411,29.444 2.500,29.750 2.500 C 30.083 2.500,30.167 2.583,30.167 2.917 C 30.167 3.292,30.233 3.333,30.833 3.333 C 31.389 3.333,31.500 3.389,31.500 3.667 C 31.500 3.951,31.611 4.000,32.250 4.000 C 32.889 4.000,33.000 4.049,33.000 4.333 C 33.000 4.617,33.111 4.667,33.750 4.667 C 34.439 4.667,34.500 4.701,34.500 5.083 C 34.500 5.389,34.589 5.500,34.833 5.500 C 35.056 5.500,35.167 5.611,35.167 5.833 C 35.167 6.117,35.278 6.167,35.917 6.167 C 36.556 6.167,36.667 6.216,36.667 6.500 C 36.667 6.784,36.778 6.833,37.417 6.833 C 38.106 6.833,38.167 6.867,38.167 7.250 C 38.167 7.625,38.233 7.667,38.833 7.667 C 39.389 7.667,39.500 7.722,39.500 8.000 C 39.500 8.244,39.611 8.333,39.917 8.333 C 40.222 8.333,40.333 8.422,40.333 8.667 C 40.333 8.944,40.444 9.000,41.000 9.000 C 41.600 9.000,41.667 9.042,41.667 9.417 C 41.667 9.799,41.728 9.833,42.417 9.833 C 43.056 9.833,43.167 9.883,43.167 10.167 C 43.167 10.451,43.278 10.500,43.917 10.500 C 44.556 10.500,44.667 10.549,44.667 10.833 C 44.667 11.056,44.778 11.167,45.000 11.167 C 45.244 11.167,45.333 11.278,45.333 11.583 C 45.333 11.966,45.394 12.000,46.083 12.000 C 46.722 12.000,46.833 12.049,46.833 12.333 C 46.833 12.611,46.944 12.667,47.500 12.667 C 48.056 12.667,48.167 12.722,48.167 13.000 C 48.167 13.244,48.278 13.333,48.583 13.333 C 48.917 13.333,49.000 13.417,49.000 13.750 C 49.000 14.125,49.067 14.167,49.667 14.167 C 50.222 14.167,50.333 14.222,50.333 14.500 C 50.333 14.784,50.444 14.833,51.083 14.833 C 51.722 14.833,51.833 14.883,51.833 15.167 C 51.833 15.451,51.944 15.500,52.583 15.500 C 53.272 15.500,53.333 15.534,53.333 15.917 C 53.333 16.222,53.422 16.333,53.667 16.333 C 53.889 16.333,54.000 16.444,54.000 16.667 C 54.000 16.951,54.111 17.000,54.750 17.000 C 55.439 17.000,55.500 17.034,55.500 17.417 C 55.500 17.799,55.561 17.833,56.250 17.833 C 56.889 17.833,57.000 17.883,57.000 18.167 C 57.000 18.444,57.111 18.500,57.667 18.500 C 58.222 18.500,58.333 18.556,58.333 18.833 C 58.333 19.078,58.444 19.167,58.750 19.167 C 59.083 19.167,59.167 19.250,59.167 19.583 C 59.167 19.958,59.233 20.000,59.833 20.000 C 60.389 20.000,60.500 20.056,60.500 20.333 C 60.500 20.617,60.611 20.667,61.250 20.667 C 61.889 20.667,62.000 20.716,62.000 21.000 C 62.000 21.284,62.111 21.333,62.750 21.333 C 63.439 21.333,63.500 21.367,63.500 21.750 C 63.500 22.056,63.589 22.167,63.833 22.167 C 64.056 22.167,64.167 22.278,64.167 22.500 C 64.167 22.784,64.278 22.833,64.917 22.833 C 65.556 22.833,65.667 22.883,65.667 23.167 C 65.667 23.444,65.778 23.500,66.333 23.500 C 66.933 23.500,67.000 23.542,67.000 23.917 C 67.000 24.250,67.083 24.333,67.417 24.333 C 67.722 24.333,67.833 24.422,67.833 24.667 C 67.833 24.944,67.944 25.000,68.500 25.000 C 69.056 25.000,69.167 25.056,69.167 25.333 C 69.167 25.799,70.660 25.840,70.678 25.375 C 70.719 24.368,70.983 26.013,71.020 27.500 L 71.063 29.250 71.167 27.750 C 71.224 26.925,71.290 26.325,71.314 26.417 C 71.337 26.508,71.411 26.446,71.477 26.277 C 71.543 26.109,71.687 29.328,71.796 33.430 C 71.906 37.532,71.934 40.970,71.859 41.069 C 71.004 42.208,71.011 42.076,71.193 53.920 C 71.354 64.475,71.374 64.931,71.687 65.267 C 72.090 65.701,72.833 65.623,72.833 65.147 C 72.833 64.866,73.266 64.725,73.865 64.810 C 73.928 64.819,74.025 64.683,74.081 64.507 C 74.137 64.332,74.348 64.164,74.550 64.136 C 74.783 64.102,74.936 63.947,74.970 63.708 C 75.004 63.467,75.138 63.333,75.345 63.333 C 75.556 63.333,75.667 63.218,75.667 63.000 C 75.667 62.721,75.778 62.667,76.349 62.667 C 76.887 62.667,77.049 62.597,77.117 62.339 C 77.164 62.159,77.345 61.966,77.518 61.911 C 77.691 61.856,77.833 61.666,77.833 61.489 C 77.833 61.198,78.356 61.047,79.032 61.144 C 79.095 61.153,79.193 61.011,79.251 60.830 C 79.309 60.648,79.501 60.500,79.678 60.500 C 80.043 60.500,80.132 59.922,79.792 59.765 C 79.677 59.713,79.763 59.715,79.984 59.771 C 80.305 59.852,80.363 59.819,80.280 59.603 C 80.215 59.432,80.265 59.333,80.417 59.333 C 80.572 59.333,80.619 59.431,80.550 59.611 C 80.475 59.807,80.505 59.850,80.654 59.758 C 80.770 59.686,80.833 59.460,80.794 59.256 C 80.729 58.918,80.781 58.888,81.361 58.930 C 81.896 58.968,82.000 58.923,82.000 58.654 C 82.000 58.425,82.116 58.333,82.405 58.333 C 82.664 58.333,82.849 58.213,82.917 58.000 C 82.975 57.817,83.167 57.667,83.345 57.667 C 83.522 57.667,83.667 57.602,83.667 57.523 C 83.667 57.276,82.818 57.529,82.628 57.833 C 82.516 58.013,82.322 58.089,82.115 58.035 C 81.890 57.976,81.820 58.010,81.900 58.140 C 82.117 58.491,81.643 58.341,81.324 57.958 C 81.152 57.752,81.009 57.668,81.006 57.772 C 81.002 57.876,80.856 57.999,80.679 58.045 C 80.455 58.104,80.385 58.060,80.447 57.899 C 80.495 57.772,80.602 57.710,80.684 57.761 C 80.771 57.815,80.833 53.590,80.833 47.593 C 80.833 41.950,80.774 37.333,80.702 37.333 C 80.630 37.333,80.571 37.183,80.571 37.000 C 80.571 36.817,80.677 36.667,80.805 36.667 C 80.957 36.667,81.008 36.550,80.952 36.333 C 80.904 36.150,80.916 36.000,80.979 36.000 C 81.042 36.000,81.110 35.794,81.131 35.542 C 81.151 35.290,81.291 34.992,81.443 34.880 C 81.694 34.694,81.694 34.667,81.450 34.573 C 81.071 34.427,80.790 34.649,80.887 35.019 C 80.932 35.192,80.889 35.382,80.792 35.442 C 80.684 35.509,80.665 35.471,80.743 35.345 C 80.833 35.199,80.756 35.155,80.477 35.194 C 80.210 35.232,80.099 35.344,80.132 35.542 C 80.178 35.817,79.899 35.904,79.055 35.880 C 78.947 35.877,78.816 36.048,78.763 36.259 C 78.704 36.492,78.519 36.665,78.291 36.697 C 78.085 36.726,77.917 36.857,77.917 36.988 C 77.917 37.214,77.018 37.574,76.857 37.412 C 76.814 37.370,76.696 37.504,76.594 37.709 C 76.492 37.915,76.246 38.107,76.047 38.135 C 75.812 38.169,75.717 38.271,75.777 38.426 C 75.869 38.666,75.696 38.776,75.083 38.867 C 74.684 38.926,74.339 39.201,74.444 39.375 C 74.486 39.444,74.393 39.500,74.237 39.500 C 74.082 39.500,73.782 39.687,73.570 39.915 C 73.338 40.165,73.083 40.291,72.926 40.231 C 72.783 40.176,72.667 40.206,72.667 40.298 C 72.667 40.389,72.556 40.507,72.421 40.559 C 72.206 40.641,72.175 39.214,72.169 29.163 L 72.162 17.674 90.206 17.712 L 108.250 17.750 108.303 17.375 C 108.337 17.134,108.471 17.000,108.678 17.000 C 108.885 17.000,109.000 16.885,109.000 16.678 C 109.000 16.471,109.134 16.337,109.375 16.303 C 109.616 16.269,109.769 16.116,109.803 15.875 C 109.837 15.634,109.971 15.500,110.178 15.500 C 110.389 15.500,110.500 15.385,110.500 15.167 C 110.500 14.944,110.611 14.833,110.833 14.833 C 111.052 14.833,111.167 14.722,111.167 14.512 C 111.167 14.305,111.301 14.171,111.542 14.137 C 111.783 14.102,111.936 13.949,111.970 13.708 C 112.004 13.467,112.138 13.333,112.345 13.333 C 112.556 13.333,112.667 13.218,112.667 13.000 C 112.667 12.778,112.778 12.667,113.000 12.667 C 113.218 12.667,113.333 12.556,113.333 12.345 C 113.333 12.138,113.467 12.004,113.708 11.970 C 113.949 11.936,114.102 11.783,114.137 11.542 C 114.171 11.301,114.305 11.167,114.512 11.167 C 114.722 11.167,114.833 11.052,114.833 10.833 C 114.833 10.611,114.944 10.500,115.167 10.500 C 115.385 10.500,115.500 10.389,115.500 10.178 C 115.500 9.971,115.634 9.837,115.875 9.803 C 116.116 9.769,116.269 9.616,116.303 9.375 C 116.337 9.134,116.471 9.000,116.678 9.000 C 116.889 9.000,117.000 8.885,117.000 8.667 C 117.000 8.439,117.111 8.333,117.349 8.333 C 117.556 8.333,117.733 8.200,117.784 8.006 C 117.831 7.825,118.011 7.633,118.185 7.578 C 118.358 7.523,118.500 7.333,118.500 7.155 C 118.500 6.944,118.615 6.833,118.833 6.833 C 119.056 6.833,119.167 6.722,119.167 6.500 C 119.167 6.273,119.278 6.167,119.516 6.167 C 119.719 6.167,119.899 6.034,119.948 5.849 C 119.993 5.674,120.174 5.493,120.349 5.448 C 120.534 5.399,120.667 5.219,120.667 5.016 C 120.667 4.778,120.773 4.667,121.000 4.667 C 121.222 4.667,121.333 4.556,121.333 4.333 C 121.333 4.106,121.444 4.000,121.682 4.000 C 121.885 4.000,122.066 3.867,122.114 3.682 C 122.160 3.507,122.341 3.327,122.515 3.281 C 122.700 3.233,122.833 3.052,122.833 2.849 C 122.833 2.611,122.939 2.500,123.167 2.500 C 123.389 2.500,123.500 2.389,123.500 2.167 C 123.500 1.948,123.611 1.833,123.822 1.833 C 123.999 1.833,124.189 1.691,124.244 1.518 C 124.299 1.345,124.492 1.164,124.672 1.117 C 124.909 1.055,125.000 0.888,125.000 0.516 L 125.000 0.000 75.750 0.000 L 26.500 0.000 26.500 0.583 M0.095 1.128 C 0.194 1.195,0.323 1.381,0.382 1.542 C 0.445 1.713,0.647 1.825,0.870 1.814 C 1.155 1.799,1.177 1.776,0.956 1.718 C 0.795 1.676,0.713 1.561,0.774 1.462 C 0.840 1.355,0.807 1.330,0.692 1.401 C 0.578 1.471,0.500 1.414,0.500 1.260 C 0.500 1.117,0.369 1.001,0.208 1.003 C 0.033 1.004,-0.012 1.054,0.095 1.128 M1.853 2.807 C 1.840 3.062,1.944 3.227,2.151 3.281 C 2.326 3.327,2.507 3.507,2.552 3.682 C 2.637 4.005,3.333 4.144,3.333 3.839 C 3.333 3.750,3.202 3.724,3.042 3.782 C 2.881 3.839,2.803 3.828,2.867 3.757 C 3.004 3.605,2.610 3.167,2.335 3.167 C 2.232 3.167,2.201 3.080,2.266 2.974 C 2.337 2.860,2.312 2.827,2.205 2.893 C 2.106 2.954,1.991 2.872,1.949 2.710 C 1.893 2.496,1.867 2.522,1.853 2.807 M4.045 4.843 C 4.032 5.019,4.185 5.277,4.386 5.418 C 4.586 5.558,4.750 5.765,4.750 5.878 C 4.750 5.991,4.938 6.097,5.167 6.114 C 5.396 6.131,5.456 6.107,5.299 6.062 C 5.143 6.016,4.970 5.833,4.913 5.656 C 4.857 5.479,4.699 5.333,4.562 5.333 C 4.426 5.333,4.360 5.258,4.417 5.167 C 4.473 5.075,4.436 5.000,4.333 5.000 C 4.231 5.000,4.190 4.930,4.243 4.845 C 4.296 4.760,4.278 4.652,4.204 4.606 C 4.130 4.561,4.058 4.667,4.045 4.843 M5.503 6.542 C 5.501 6.723,5.626 6.833,5.833 6.833 C 6.017 6.833,6.167 6.942,6.167 7.074 C 6.167 7.206,6.303 7.412,6.469 7.532 C 6.636 7.652,6.821 7.881,6.881 8.042 C 6.944 8.212,7.147 8.325,7.370 8.314 C 7.613 8.302,7.653 8.269,7.482 8.223 C 7.334 8.183,7.128 7.965,7.025 7.738 C 6.921 7.510,6.723 7.281,6.586 7.228 C 6.448 7.175,6.373 7.070,6.420 6.995 C 6.467 6.919,6.335 6.804,6.127 6.740 C 5.920 6.675,5.695 6.538,5.628 6.436 C 5.551 6.320,5.504 6.359,5.503 6.542 M8.284 9.161 C 8.331 9.342,8.472 9.574,8.597 9.678 C 8.769 9.821,8.762 9.741,8.567 9.350 C 8.272 8.759,8.159 8.684,8.284 9.161 M9.057 9.889 C 9.117 10.057,9.167 10.263,9.167 10.347 C 9.167 10.431,9.317 10.500,9.500 10.500 C 9.722 10.500,9.833 10.611,9.833 10.833 C 9.833 11.045,9.940 11.162,10.125 11.154 C 10.299 11.146,10.333 11.107,10.208 11.056 C 10.094 11.010,9.998 10.885,9.995 10.778 C 9.993 10.671,9.756 10.358,9.469 10.083 C 9.110 9.740,8.981 9.679,9.057 9.889 M10.522 11.333 C 10.513 11.471,10.560 11.664,10.628 11.762 C 10.807 12.024,11.333 12.186,11.333 11.979 C 11.333 11.882,11.187 11.764,11.009 11.717 C 10.831 11.671,10.652 11.509,10.612 11.358 C 10.555 11.144,10.535 11.139,10.522 11.333 M52.125 17.125 C 51.965 17.161,51.833 17.256,51.833 17.336 C 51.833 17.416,51.477 17.510,51.042 17.544 L 50.250 17.607 51.042 17.637 L 51.833 17.667 51.866 30.792 L 51.899 43.917 52.009 33.917 C 52.070 28.417,52.146 22.642,52.180 21.083 L 52.241 18.250 52.333 22.250 L 52.426 26.250 52.463 22.042 C 52.486 19.372,52.561 17.833,52.667 17.833 C 52.758 17.833,52.845 18.152,52.858 18.542 L 52.883 19.250 52.992 18.500 C 53.088 17.839,53.113 17.805,53.196 18.210 L 53.291 18.671 53.270 18.210 C 53.258 17.939,53.165 17.767,53.042 17.792 C 52.927 17.815,52.833 17.758,52.833 17.667 C 52.833 17.575,52.955 17.500,53.104 17.500 C 53.325 17.500,53.337 17.455,53.167 17.250 C 52.946 16.984,52.584 16.898,52.738 17.148 C 52.789 17.229,52.699 17.398,52.540 17.523 C 52.281 17.726,52.273 17.720,52.466 17.473 C 52.707 17.165,52.569 17.024,52.125 17.125 M35.105 25.913 C 35.158 26.052,35.274 26.167,35.361 26.167 C 35.448 26.167,35.473 26.242,35.417 26.333 C 35.360 26.425,35.388 26.500,35.478 26.500 C 35.568 26.500,35.677 26.631,35.718 26.792 C 35.760 26.952,35.803 26.790,35.814 26.431 C 35.825 26.072,35.786 25.825,35.728 25.883 C 35.670 25.941,35.484 25.914,35.315 25.824 C 35.070 25.692,35.027 25.710,35.105 25.913 M85.582 31.669 C 85.524 31.763,85.388 31.788,85.280 31.726 C 85.172 31.664,85.139 31.675,85.207 31.750 C 85.275 31.825,85.247 31.987,85.145 32.110 C 85.004 32.280,85.019 32.333,85.209 32.333 C 85.475 32.333,85.975 31.841,85.729 31.822 C 85.649 31.815,85.733 31.745,85.917 31.667 C 86.188 31.550,86.198 31.521,85.968 31.512 C 85.813 31.505,85.639 31.576,85.582 31.669 M83.000 33.333 C 83.000 33.556,82.889 33.667,82.667 33.667 C 82.483 33.667,82.333 33.750,82.333 33.851 C 82.333 33.960,82.452 33.988,82.625 33.918 C 82.921 33.800,83.300 33.703,83.559 33.679 C 83.638 33.672,83.658 33.550,83.603 33.408 C 83.548 33.266,83.573 33.192,83.657 33.244 C 83.741 33.296,83.857 33.263,83.915 33.169 C 83.977 33.069,83.813 33.000,83.510 33.000 C 83.111 33.000,83.000 33.073,83.000 33.333 M107.997 39.754 C 107.881 39.894,107.834 40.056,107.893 40.115 C 107.952 40.174,108.000 40.130,108.000 40.018 C 108.000 39.906,108.075 39.860,108.167 39.917 C 108.258 39.973,108.333 39.903,108.333 39.760 C 108.333 39.434,108.263 39.433,107.997 39.754 M107.581 61.417 C 107.581 73.150,107.601 77.925,107.625 72.029 C 107.649 66.132,107.649 56.532,107.625 50.695 C 107.601 44.859,107.581 49.683,107.581 61.417 M87.000 54.843 C 87.000 54.940,86.930 54.976,86.844 54.923 C 86.758 54.870,86.626 54.929,86.552 55.055 C 86.478 55.181,86.304 55.327,86.167 55.379 C 86.000 55.442,86.042 55.478,86.292 55.487 C 86.498 55.494,86.667 55.434,86.667 55.353 C 86.667 55.272,86.817 55.166,87.000 55.118 C 87.338 55.030,87.472 54.667,87.167 54.667 C 87.075 54.667,87.000 54.746,87.000 54.843 M84.887 56.276 C 84.948 56.337,84.912 56.488,84.808 56.613 C 84.659 56.793,84.677 56.819,84.893 56.736 C 85.205 56.616,85.267 56.167,84.972 56.167 C 84.865 56.167,84.827 56.216,84.887 56.276 M81.639 58.479 C 81.818 58.593,81.810 58.640,81.597 58.722 C 81.452 58.777,81.333 58.753,81.333 58.667 C 81.333 58.581,81.202 58.553,81.042 58.604 C 80.795 58.683,80.789 58.670,81.000 58.518 C 81.301 58.302,81.354 58.298,81.639 58.479 M72.077 74.083 C 72.077 78.483,72.099 80.259,72.125 78.030 C 72.151 75.801,72.151 72.201,72.125 70.030 C 72.099 67.859,72.077 69.683,72.077 74.083 " stroke="none" fill="#1c74bc" fill-rule="evenodd"></path><path id="path2" d="M158.384 8.658 C 158.334 8.850,158.157 9.000,157.981 9.000 C 157.757 9.000,157.667 9.120,157.667 9.417 C 157.667 9.799,157.606 9.833,156.917 9.833 C 156.278 9.833,156.167 9.883,156.167 10.167 C 156.167 10.437,156.056 10.500,155.578 10.500 C 155.196 10.500,154.954 10.592,154.889 10.763 C 154.833 10.907,154.611 11.093,154.394 11.175 C 154.159 11.265,154.000 11.461,154.000 11.663 C 154.000 11.951,153.892 12.000,153.250 12.000 C 152.611 12.000,152.500 12.049,152.500 12.333 C 152.500 12.611,152.389 12.667,151.833 12.667 C 151.285 12.667,151.167 12.724,151.167 12.990 C 151.167 13.245,151.009 13.337,150.417 13.425 C 149.833 13.513,149.667 13.607,149.667 13.852 C 149.667 14.056,149.549 14.167,149.333 14.167 C 149.111 14.167,149.000 14.278,149.000 14.500 C 149.000 14.784,148.889 14.833,148.250 14.833 C 147.619 14.833,147.500 14.885,147.500 15.156 C 147.500 15.412,147.342 15.503,146.750 15.592 C 146.166 15.680,146.000 15.774,146.000 16.019 C 146.000 16.275,145.876 16.333,145.333 16.333 C 144.778 16.333,144.667 16.389,144.667 16.667 C 144.667 16.911,144.556 17.000,144.250 17.000 C 143.917 17.000,143.833 17.083,143.833 17.417 C 143.833 17.799,143.772 17.833,143.083 17.833 C 142.452 17.833,142.333 17.885,142.333 18.157 C 142.333 18.410,142.198 18.491,141.708 18.532 L 141.083 18.583 141.041 48.625 L 140.999 78.667 169.208 78.664 C 198.403 78.662,198.167 78.666,198.167 78.147 C 198.167 77.944,198.285 77.833,198.500 77.833 C 198.722 77.833,198.833 77.722,198.833 77.500 C 198.833 77.284,198.944 77.167,199.149 77.167 C 199.508 77.167,199.667 76.856,199.667 76.153 C 199.667 75.778,199.743 75.667,200.000 75.667 C 200.222 75.667,200.333 75.556,200.333 75.333 C 200.333 75.089,200.444 75.000,200.750 75.000 C 201.056 75.000,201.167 74.911,201.167 74.667 C 201.167 74.444,201.278 74.333,201.500 74.333 C 201.744 74.333,201.833 74.222,201.833 73.917 C 201.833 73.611,201.922 73.500,202.167 73.500 C 202.389 73.500,202.500 73.389,202.500 73.167 C 202.500 72.922,202.611 72.833,202.917 72.833 C 203.222 72.833,203.333 72.744,203.333 72.500 C 203.333 72.278,203.444 72.167,203.667 72.167 C 203.911 72.167,204.000 72.056,204.000 71.750 C 204.000 71.444,204.089 71.333,204.333 71.333 C 204.556 71.333,204.667 71.222,204.667 71.000 C 204.667 70.756,204.778 70.667,205.083 70.667 C 205.389 70.667,205.500 70.578,205.500 70.333 C 205.500 70.111,205.611 70.000,205.833 70.000 C 206.078 70.000,206.167 69.889,206.167 69.583 C 206.167 69.278,206.256 69.167,206.500 69.167 C 206.722 69.167,206.833 69.056,206.833 68.833 C 206.833 68.589,206.944 68.500,207.250 68.500 C 207.583 68.500,207.667 68.417,207.667 68.083 C 207.667 67.778,207.756 67.667,208.000 67.667 C 208.222 67.667,208.333 67.556,208.333 67.333 C 208.333 67.111,208.444 67.000,208.667 67.000 C 208.885 67.000,209.000 66.889,209.000 66.678 C 209.000 66.471,209.134 66.337,209.375 66.303 C 209.610 66.270,209.769 66.116,209.801 65.892 C 209.829 65.695,210.003 65.495,210.188 65.446 C 210.454 65.377,210.512 65.245,210.470 64.804 L 210.417 64.250 185.459 64.208 L 160.501 64.166 160.459 36.291 L 160.417 8.417 159.445 8.366 C 158.583 8.322,158.463 8.355,158.384 8.658 M186.208 9.172 C 185.629 9.405,185.747 10.500,186.351 10.500 C 186.556 10.500,186.667 10.617,186.667 10.833 C 186.667 11.056,186.778 11.167,187.000 11.167 C 187.244 11.167,187.333 11.278,187.333 11.583 C 187.333 11.889,187.422 12.000,187.667 12.000 C 187.889 12.000,188.000 12.111,188.000 12.333 C 188.000 12.578,188.111 12.667,188.417 12.667 C 188.722 12.667,188.833 12.756,188.833 13.000 C 188.833 13.222,188.944 13.333,189.167 13.333 C 189.411 13.333,189.500 13.444,189.500 13.750 C 189.500 14.056,189.589 14.167,189.833 14.167 C 190.056 14.167,190.167 14.278,190.167 14.500 C 190.167 14.744,190.278 14.833,190.583 14.833 C 190.889 14.833,191.000 14.922,191.000 15.167 C 191.000 15.389,191.111 15.500,191.333 15.500 C 191.578 15.500,191.667 15.611,191.667 15.917 C 191.667 16.222,191.756 16.333,192.000 16.333 C 192.222 16.333,192.333 16.444,192.333 16.667 C 192.333 16.911,192.444 17.000,192.750 17.000 C 193.062 17.000,193.167 17.088,193.167 17.349 C 193.167 17.558,193.301 17.733,193.500 17.785 C 193.684 17.833,193.833 18.012,193.833 18.186 C 193.833 18.382,193.951 18.500,194.147 18.500 C 194.321 18.500,194.500 18.649,194.548 18.833 C 194.600 19.033,194.776 19.167,194.984 19.167 C 195.227 19.167,195.333 19.273,195.333 19.516 C 195.333 19.724,195.467 19.900,195.667 19.952 C 195.851 20.000,196.000 20.179,196.000 20.353 C 196.000 20.549,196.118 20.667,196.314 20.667 C 196.488 20.667,196.667 20.816,196.715 21.000 C 196.767 21.199,196.942 21.333,197.151 21.333 C 197.394 21.333,197.500 21.439,197.500 21.682 C 197.500 21.891,197.634 22.066,197.833 22.118 C 198.018 22.167,198.167 22.346,198.167 22.519 C 198.167 22.743,198.286 22.833,198.583 22.833 C 198.889 22.833,199.000 22.922,199.000 23.167 C 199.000 23.496,199.111 23.500,207.667 23.500 L 216.333 23.500 216.333 51.083 L 216.333 78.667 225.750 78.667 L 235.167 78.667 235.167 51.083 L 235.167 23.500 244.167 23.500 C 253.056 23.500,253.167 23.496,253.167 23.167 C 253.167 22.946,253.278 22.833,253.497 22.833 C 253.710 22.833,253.864 22.686,253.932 22.417 C 253.997 22.156,254.154 22.000,254.351 22.000 C 254.556 22.000,254.667 21.883,254.667 21.667 C 254.667 21.444,254.778 21.333,255.000 21.333 C 255.218 21.333,255.333 21.222,255.333 21.012 C 255.333 20.805,255.467 20.671,255.708 20.637 C 255.949 20.602,256.102 20.449,256.137 20.208 C 256.171 19.967,256.305 19.833,256.512 19.833 C 256.722 19.833,256.833 19.718,256.833 19.500 C 256.833 19.278,256.944 19.167,257.167 19.167 C 257.383 19.167,257.500 19.056,257.500 18.851 C 257.500 18.654,257.656 18.497,257.917 18.432 C 258.186 18.364,258.333 18.210,258.333 17.997 C 258.333 17.778,258.446 17.667,258.667 17.667 C 258.889 17.667,259.000 17.556,259.000 17.333 C 259.000 17.111,259.111 17.000,259.333 17.000 C 259.521 17.000,259.667 16.889,259.667 16.746 C 259.667 16.607,259.854 16.407,260.083 16.303 C 260.313 16.199,260.500 15.975,260.500 15.807 C 260.500 15.611,260.621 15.500,260.833 15.500 C 261.056 15.500,261.167 15.389,261.167 15.167 C 261.167 14.948,261.278 14.833,261.489 14.833 C 261.666 14.833,261.857 14.687,261.914 14.509 C 261.971 14.330,262.163 14.137,262.342 14.081 C 262.521 14.024,262.667 13.833,262.667 13.655 C 262.667 13.444,262.782 13.333,263.000 13.333 C 263.222 13.333,263.333 13.222,263.333 13.000 C 263.333 12.782,263.444 12.667,263.655 12.667 C 263.833 12.667,264.024 12.521,264.081 12.342 C 264.137 12.163,264.330 11.971,264.509 11.914 C 264.687 11.857,264.833 11.666,264.833 11.489 C 264.833 11.278,264.948 11.167,265.167 11.167 C 265.466 11.167,265.500 11.056,265.500 10.083 L 265.500 9.000 226.042 9.011 C 202.932 9.017,186.428 9.084,186.208 9.172 M271.444 9.111 C 271.383 9.172,271.333 24.847,271.333 43.944 L 271.333 78.667 280.750 78.667 L 290.167 78.667 290.167 68.833 L 290.167 59.000 290.516 59.000 C 290.724 59.000,290.900 58.866,290.952 58.667 C 291.000 58.482,291.179 58.333,291.353 58.333 C 291.556 58.333,291.667 58.215,291.667 58.000 C 291.667 57.778,291.778 57.667,292.000 57.667 C 292.244 57.667,292.333 57.556,292.333 57.250 C 292.333 56.917,292.417 56.833,292.750 56.833 C 293.056 56.833,293.167 56.744,293.167 56.500 C 293.167 56.278,293.278 56.167,293.500 56.167 C 293.722 56.167,293.833 56.056,293.833 55.833 C 293.833 55.611,293.944 55.500,294.167 55.500 C 294.411 55.500,294.500 55.389,294.500 55.083 C 294.500 54.750,294.583 54.667,294.917 54.667 C 295.222 54.667,295.333 54.578,295.333 54.333 C 295.333 54.111,295.444 54.000,295.667 54.000 C 295.889 54.000,296.000 53.889,296.000 53.667 C 296.000 53.444,296.111 53.333,296.333 53.333 C 296.578 53.333,296.667 53.222,296.667 52.917 C 296.667 52.583,296.750 52.500,297.083 52.500 C 297.389 52.500,297.500 52.411,297.500 52.167 C 297.500 51.944,297.611 51.833,297.833 51.833 C 298.048 51.833,298.167 51.722,298.167 51.521 C 298.167 51.285,298.332 51.183,298.850 51.100 C 299.322 51.025,299.559 50.894,299.616 50.677 C 299.661 50.505,299.841 50.327,300.015 50.281 C 300.190 50.235,300.333 50.087,300.333 49.952 C 300.333 49.816,300.483 49.666,300.667 49.618 C 300.850 49.570,301.000 49.410,301.000 49.261 C 301.000 49.113,301.188 48.920,301.417 48.833 C 301.646 48.746,301.833 48.561,301.833 48.421 C 301.833 48.278,301.979 48.167,302.167 48.167 C 302.389 48.167,302.500 48.056,302.500 47.833 C 302.500 47.612,302.611 47.500,302.830 47.500 C 303.043 47.500,303.197 47.352,303.265 47.083 C 303.330 46.823,303.487 46.667,303.685 46.667 C 303.889 46.667,304.000 46.549,304.000 46.333 C 304.000 46.111,304.111 46.000,304.333 46.000 C 304.556 46.000,304.667 45.889,304.667 45.667 C 304.667 45.446,304.778 45.333,304.997 45.333 C 305.210 45.333,305.364 45.186,305.432 44.917 C 305.497 44.656,305.654 44.500,305.851 44.500 C 306.056 44.500,306.167 44.383,306.167 44.167 C 306.167 43.944,306.278 43.833,306.500 43.833 C 306.718 43.833,306.833 43.722,306.833 43.512 C 306.833 43.305,306.967 43.171,307.208 43.137 C 307.449 43.102,307.602 42.949,307.637 42.708 C 307.697 42.282,308.333 42.171,308.333 42.587 C 308.333 42.726,308.521 42.926,308.750 43.030 C 308.979 43.135,309.167 43.358,309.167 43.527 C 309.167 43.722,309.287 43.833,309.500 43.833 C 309.722 43.833,309.833 43.944,309.833 44.167 C 309.833 44.389,309.944 44.500,310.167 44.500 C 310.354 44.500,310.500 44.611,310.500 44.754 C 310.500 44.893,310.688 45.093,310.917 45.197 C 311.146 45.301,311.333 45.525,311.333 45.693 C 311.333 45.889,311.454 46.000,311.667 46.000 C 311.889 46.000,312.000 46.111,312.000 46.333 C 312.000 46.549,312.111 46.667,312.314 46.667 C 312.491 46.667,312.667 46.817,312.718 47.012 C 312.768 47.203,312.964 47.399,313.154 47.448 C 313.350 47.500,313.500 47.675,313.500 47.853 C 313.500 48.056,313.618 48.167,313.833 48.167 C 314.056 48.167,314.167 48.278,314.167 48.500 C 314.167 48.715,314.278 48.833,314.481 48.833 C 314.658 48.833,314.834 48.984,314.885 49.179 C 314.935 49.369,315.131 49.565,315.321 49.615 C 315.516 49.666,315.667 49.842,315.667 50.019 C 315.667 50.222,315.785 50.333,316.000 50.333 C 316.222 50.333,316.333 50.444,316.333 50.667 C 316.333 50.882,316.444 51.000,316.647 51.000 C 316.825 51.000,317.000 51.150,317.052 51.346 C 317.101 51.536,317.297 51.732,317.488 51.782 C 317.683 51.833,317.833 52.009,317.833 52.186 C 317.833 52.389,317.951 52.500,318.167 52.500 C 318.389 52.500,318.500 52.611,318.500 52.833 C 318.500 53.049,318.611 53.167,318.814 53.167 C 318.991 53.167,319.167 53.317,319.218 53.512 C 319.268 53.703,319.464 53.899,319.654 53.948 C 319.850 54.000,320.000 54.175,320.000 54.353 C 320.000 54.556,320.118 54.667,320.333 54.667 C 320.664 54.667,320.667 54.778,320.667 66.667 L 320.667 78.667 330.083 78.667 L 339.500 78.667 339.500 64.500 C 339.500 50.737,339.491 50.333,339.186 50.333 C 339.012 50.333,338.833 50.184,338.785 50.000 C 338.733 49.801,338.558 49.667,338.349 49.667 C 338.118 49.667,338.000 49.560,338.000 49.353 C 338.000 49.179,337.851 49.000,337.667 48.952 C 337.467 48.900,337.333 48.724,337.333 48.516 C 337.333 48.285,337.227 48.167,337.019 48.167 C 336.846 48.167,336.667 48.018,336.618 47.833 C 336.566 47.634,336.391 47.500,336.182 47.500 C 335.939 47.500,335.833 47.394,335.833 47.151 C 335.833 46.942,335.699 46.767,335.500 46.715 C 335.316 46.667,335.167 46.488,335.167 46.314 C 335.167 46.118,335.049 46.000,334.853 46.000 C 334.679 46.000,334.500 45.851,334.452 45.667 C 334.400 45.467,334.224 45.333,334.016 45.333 C 333.773 45.333,333.667 45.227,333.667 44.984 C 333.667 44.776,333.533 44.600,333.333 44.548 C 333.149 44.500,333.000 44.321,333.000 44.147 C 333.000 43.924,332.880 43.833,332.583 43.833 C 332.278 43.833,332.167 43.744,332.167 43.500 C 332.167 43.278,332.056 43.167,331.833 43.167 C 331.589 43.167,331.500 43.056,331.500 42.750 C 331.500 42.444,331.411 42.333,331.167 42.333 C 330.944 42.333,330.833 42.222,330.833 42.000 C 330.833 41.756,330.722 41.667,330.417 41.667 C 330.111 41.667,330.000 41.578,330.000 41.333 C 330.000 41.111,329.889 41.000,329.667 41.000 C 329.422 41.000,329.333 40.889,329.333 40.583 C 329.333 40.278,329.244 40.167,329.000 40.167 C 328.778 40.167,328.667 40.056,328.667 39.833 C 328.667 39.589,328.556 39.500,328.250 39.500 C 327.944 39.500,327.833 39.411,327.833 39.167 C 327.833 38.944,327.722 38.833,327.500 38.833 C 327.256 38.833,327.167 38.722,327.167 38.417 C 327.167 38.111,327.078 38.000,326.833 38.000 C 326.611 38.000,326.500 37.889,326.500 37.667 C 326.500 37.422,326.389 37.333,326.083 37.333 C 325.778 37.333,325.667 37.244,325.667 37.000 C 325.667 36.778,325.556 36.667,325.333 36.667 C 325.089 36.667,325.000 36.556,325.000 36.250 C 325.000 35.944,324.911 35.833,324.667 35.833 C 324.444 35.833,324.333 35.722,324.333 35.500 C 324.333 35.256,324.222 35.167,323.917 35.167 C 323.611 35.167,323.500 35.078,323.500 34.833 C 323.500 34.611,323.389 34.500,323.167 34.500 C 322.922 34.500,322.833 34.389,322.833 34.083 C 322.833 33.786,322.743 33.667,322.519 33.667 C 322.346 33.667,322.167 33.518,322.118 33.333 C 322.066 33.134,321.891 33.000,321.682 33.000 C 321.452 33.000,321.333 32.894,321.333 32.686 C 321.333 32.512,321.184 32.333,321.000 32.285 C 320.801 32.233,320.667 32.058,320.667 31.849 C 320.667 31.611,320.561 31.500,320.333 31.500 C 320.126 31.500,320.000 31.389,320.000 31.207 C 320.000 31.045,320.150 30.820,320.333 30.705 C 320.517 30.591,320.667 30.385,320.667 30.249 C 320.667 30.111,320.816 30.000,321.000 30.000 C 321.222 30.000,321.333 29.889,321.333 29.667 C 321.333 29.439,321.444 29.333,321.682 29.333 C 321.885 29.333,322.066 29.200,322.114 29.015 C 322.160 28.841,322.341 28.660,322.515 28.614 C 322.700 28.566,322.833 28.385,322.833 28.182 C 322.833 27.944,322.939 27.833,323.167 27.833 C 323.389 27.833,323.500 27.722,323.500 27.500 C 323.500 27.273,323.611 27.167,323.849 27.167 C 324.052 27.167,324.233 27.034,324.281 26.849 C 324.327 26.674,324.507 26.493,324.682 26.448 C 324.867 26.399,325.000 26.219,325.000 26.016 C 325.000 25.778,325.106 25.667,325.333 25.667 C 325.556 25.667,325.667 25.556,325.667 25.333 C 325.667 25.089,325.778 25.000,326.083 25.000 C 326.380 25.000,326.500 24.910,326.500 24.686 C 326.500 24.512,326.649 24.333,326.833 24.285 C 327.033 24.233,327.167 24.058,327.167 23.849 C 327.167 23.611,327.273 23.500,327.500 23.500 C 327.722 23.500,327.833 23.389,327.833 23.167 C 327.833 22.922,327.944 22.833,328.250 22.833 C 328.556 22.833,328.667 22.744,328.667 22.500 C 328.667 22.278,328.778 22.167,329.000 22.167 C 329.244 22.167,329.333 22.056,329.333 21.750 C 329.333 21.444,329.422 21.333,329.667 21.333 C 329.889 21.333,330.000 21.222,330.000 21.000 C 330.000 20.756,330.111 20.667,330.417 20.667 C 330.722 20.667,330.833 20.578,330.833 20.333 C 330.833 20.111,330.944 20.000,331.167 20.000 C 331.411 20.000,331.500 19.889,331.500 19.583 C 331.500 19.278,331.589 19.167,331.833 19.167 C 332.052 19.167,332.167 19.056,332.167 18.843 C 332.167 18.581,332.302 18.509,332.875 18.468 C 333.464 18.425,333.592 18.353,333.637 18.042 C 333.671 17.801,333.805 17.667,334.012 17.667 C 334.222 17.667,334.333 17.552,334.333 17.333 C 334.333 17.106,334.444 17.000,334.682 17.000 C 334.889 17.000,335.066 16.866,335.117 16.672 C 335.164 16.492,335.345 16.299,335.518 16.244 C 335.691 16.189,335.833 15.999,335.833 15.822 C 335.833 15.611,335.948 15.500,336.167 15.500 C 336.389 15.500,336.500 15.389,336.500 15.167 C 336.500 14.939,336.611 14.833,336.849 14.833 C 337.058 14.833,337.233 14.699,337.285 14.500 C 337.333 14.316,337.512 14.167,337.686 14.167 C 337.910 14.167,338.000 14.047,338.000 13.750 C 338.000 13.438,338.088 13.333,338.349 13.333 C 338.558 13.333,338.733 13.199,338.785 13.000 C 338.833 12.816,339.012 12.667,339.186 12.667 C 339.382 12.667,339.500 12.549,339.500 12.353 C 339.500 12.179,339.649 12.000,339.833 11.952 C 340.033 11.900,340.167 11.724,340.167 11.516 C 340.167 11.273,340.273 11.167,340.516 11.167 C 340.719 11.167,340.899 11.034,340.948 10.849 C 340.993 10.674,341.174 10.493,341.349 10.448 C 341.866 10.312,341.783 9.369,341.236 9.161 C 340.966 9.059,336.674 9.014,329.694 9.040 L 318.583 9.083 318.530 9.458 C 318.496 9.699,318.362 9.833,318.155 9.833 C 317.944 9.833,317.833 9.948,317.833 10.167 C 317.833 10.411,317.722 10.500,317.417 10.500 C 317.120 10.500,317.000 10.590,317.000 10.814 C 317.000 10.988,316.851 11.167,316.667 11.215 C 316.467 11.267,316.333 11.442,316.333 11.651 C 316.333 11.889,316.227 12.000,316.000 12.000 C 315.778 12.000,315.667 12.111,315.667 12.333 C 315.667 12.578,315.556 12.667,315.250 12.667 C 314.953 12.667,314.833 12.757,314.833 12.981 C 314.833 13.154,314.684 13.333,314.500 13.382 C 314.301 13.434,314.167 13.609,314.167 13.818 C 314.167 14.061,314.061 14.167,313.818 14.167 C 313.609 14.167,313.434 14.301,313.382 14.500 C 313.333 14.684,313.154 14.833,312.981 14.833 C 312.784 14.833,312.667 14.951,312.667 15.147 C 312.667 15.321,312.518 15.500,312.333 15.548 C 312.134 15.600,312.000 15.776,312.000 15.984 C 312.000 16.245,311.895 16.333,311.583 16.333 C 311.282 16.333,311.167 16.423,311.167 16.657 C 311.167 16.910,311.031 16.991,310.542 17.032 C 310.040 17.073,309.906 17.157,309.863 17.458 C 309.829 17.699,309.695 17.833,309.488 17.833 C 309.311 17.833,309.167 17.947,309.167 18.087 C 309.167 18.227,308.979 18.413,308.750 18.500 C 308.521 18.587,308.333 18.768,308.333 18.901 C 308.333 19.035,308.183 19.192,308.000 19.250 C 307.817 19.308,307.667 19.501,307.667 19.678 C 307.667 19.894,307.551 20.000,307.318 20.000 C 307.109 20.000,306.934 20.134,306.882 20.333 C 306.833 20.518,306.654 20.667,306.481 20.667 C 306.278 20.667,306.167 20.785,306.167 21.000 C 306.167 21.222,306.056 21.333,305.833 21.333 C 305.589 21.333,305.500 21.444,305.500 21.750 C 305.500 22.083,305.417 22.167,305.083 22.167 C 304.778 22.167,304.667 22.256,304.667 22.500 C 304.667 22.722,304.556 22.833,304.333 22.833 C 304.111 22.833,304.000 22.944,304.000 23.167 C 304.000 23.389,303.889 23.500,303.667 23.500 C 303.422 23.500,303.333 23.611,303.333 23.917 C 303.333 24.250,303.250 24.333,302.917 24.333 C 302.611 24.333,302.500 24.422,302.500 24.667 C 302.500 24.889,302.389 25.000,302.167 25.000 C 301.944 25.000,301.833 25.111,301.833 25.333 C 301.833 25.556,301.722 25.667,301.500 25.667 C 301.256 25.667,301.167 25.778,301.167 26.083 C 301.167 26.417,301.083 26.500,300.750 26.500 C 300.444 26.500,300.333 26.589,300.333 26.833 C 300.333 27.056,300.222 27.167,300.000 27.167 C 299.778 27.167,299.667 27.278,299.667 27.500 C 299.667 27.718,299.556 27.833,299.345 27.833 C 299.138 27.833,299.004 27.967,298.970 28.208 C 298.936 28.449,298.783 28.602,298.542 28.637 C 298.301 28.671,298.167 28.805,298.167 29.012 C 298.167 29.269,298.049 29.333,297.579 29.333 C 297.115 29.333,296.960 29.416,296.842 29.727 C 296.760 29.944,296.536 30.162,296.346 30.212 C 296.156 30.261,296.000 30.413,296.000 30.548 C 296.000 30.684,295.850 30.834,295.667 30.882 C 295.483 30.930,295.333 31.088,295.333 31.234 C 295.333 31.380,295.219 31.500,295.079 31.500 C 294.939 31.500,294.754 31.688,294.667 31.917 C 294.570 32.172,294.377 32.333,294.171 32.333 C 293.944 32.333,293.833 32.443,293.833 32.667 C 293.833 32.889,293.722 33.000,293.500 33.000 C 293.282 33.000,293.167 33.111,293.167 33.322 C 293.167 33.529,293.033 33.663,292.792 33.697 C 292.551 33.731,292.398 33.884,292.363 34.125 C 292.329 34.366,292.195 34.500,291.988 34.500 C 291.778 34.500,291.667 34.615,291.667 34.833 C 291.667 35.056,291.556 35.167,291.333 35.167 C 291.118 35.167,291.000 35.278,291.000 35.481 C 291.000 35.683,290.852 35.823,290.583 35.874 L 290.167 35.954 290.167 22.477 L 290.167 9.000 280.861 9.000 C 275.743 9.000,271.506 9.050,271.444 9.111 M141.000 101.417 L 141.000 111.167 142.016 111.167 C 142.891 111.167,143.043 111.121,143.118 110.833 C 143.184 110.581,143.346 110.500,143.785 110.500 C 144.219 110.500,144.386 110.419,144.449 110.176 C 144.496 109.998,144.695 109.829,144.892 109.801 C 145.116 109.769,145.270 109.610,145.303 109.375 C 145.348 109.059,145.459 109.000,146.012 109.000 C 146.556 109.000,146.667 108.943,146.667 108.667 C 146.667 108.422,146.778 108.333,147.083 108.333 L 147.500 108.333 147.500 100.000 L 147.500 91.667 144.250 91.667 L 141.000 91.667 141.000 101.417 M151.167 101.417 L 151.167 111.167 152.250 111.167 C 153.222 111.167,153.333 111.132,153.333 110.833 C 153.333 110.562,153.444 110.500,153.932 110.500 C 154.385 110.500,154.552 110.421,154.616 110.176 C 154.663 109.998,154.862 109.829,155.059 109.801 C 155.283 109.769,155.437 109.610,155.470 109.375 C 155.515 109.059,155.626 109.000,156.178 109.000 C 156.714 109.000,156.833 108.942,156.833 108.678 C 156.833 108.471,156.967 108.337,157.208 108.303 C 157.582 108.250,157.583 108.242,157.628 104.625 C 157.671 101.138,157.686 101.000,158.003 101.000 C 158.216 101.000,158.333 101.112,158.333 101.316 C 158.333 101.675,158.644 101.833,159.347 101.833 C 159.722 101.833,159.833 101.909,159.833 102.167 C 159.833 102.389,159.944 102.500,160.167 102.500 C 160.394 102.500,160.500 102.611,160.500 102.849 C 160.500 103.056,160.634 103.233,160.828 103.284 C 161.008 103.331,161.201 103.511,161.256 103.685 C 161.311 103.858,161.492 104.000,161.658 104.000 C 161.825 104.000,162.000 104.150,162.048 104.333 C 162.115 104.587,162.276 104.667,162.723 104.667 C 163.205 104.667,163.320 104.734,163.363 105.042 C 163.398 105.283,163.551 105.436,163.792 105.470 C 164.033 105.504,164.167 105.638,164.167 105.845 C 164.167 106.056,164.282 106.167,164.500 106.167 C 164.722 106.167,164.833 106.278,164.833 106.500 C 164.833 106.744,164.944 106.833,165.250 106.833 C 165.562 106.833,165.667 106.921,165.667 107.182 C 165.667 107.385,165.800 107.566,165.985 107.614 C 166.159 107.660,166.340 107.841,166.386 108.015 C 166.463 108.313,166.655 108.333,169.318 108.333 L 172.167 108.333 172.167 100.000 L 172.167 91.667 169.250 91.667 L 166.333 91.667 166.333 95.667 L 166.333 99.667 165.917 99.667 C 165.605 99.667,165.500 99.579,165.500 99.318 C 165.500 99.109,165.366 98.934,165.167 98.882 C 164.982 98.833,164.833 98.654,164.833 98.481 C 164.833 98.278,164.715 98.167,164.500 98.167 C 164.278 98.167,164.167 98.056,164.167 97.833 C 164.167 97.589,164.056 97.500,163.750 97.500 C 163.451 97.500,163.333 97.410,163.333 97.181 C 163.333 96.939,163.173 96.835,162.667 96.750 C 162.161 96.665,162.000 96.561,162.000 96.319 C 162.000 96.090,161.883 96.000,161.583 96.000 C 161.278 96.000,161.167 95.911,161.167 95.667 C 161.167 95.444,161.056 95.333,160.833 95.333 C 160.606 95.333,160.500 95.222,160.500 94.984 C 160.500 94.781,160.367 94.601,160.182 94.552 C 160.007 94.507,159.827 94.326,159.781 94.151 C 159.733 93.966,159.552 93.833,159.349 93.833 C 159.111 93.833,159.000 93.727,159.000 93.500 C 159.000 93.223,158.889 93.167,158.345 93.167 C 157.792 93.167,157.682 93.108,157.637 92.792 C 157.602 92.551,157.449 92.398,157.208 92.363 C 156.967 92.329,156.833 92.195,156.833 91.988 C 156.833 91.683,156.688 91.667,154.000 91.667 L 151.167 91.667 151.167 101.417 M175.699 92.374 C 175.741 92.964,175.813 93.092,176.125 93.137 C 176.366 93.171,176.500 93.305,176.500 93.512 C 176.500 93.722,176.615 93.833,176.833 93.833 C 177.056 93.833,177.167 93.944,177.167 94.167 C 177.167 94.385,177.278 94.500,177.488 94.500 C 177.695 94.500,177.829 94.634,177.863 94.875 C 177.898 95.116,178.051 95.269,178.292 95.303 C 178.533 95.337,178.667 95.471,178.667 95.678 C 178.667 95.982,178.808 96.000,181.167 96.000 L 183.667 96.000 183.667 103.583 L 183.667 111.167 184.750 111.167 C 185.722 111.167,185.833 111.132,185.833 110.833 C 185.833 110.606,185.944 110.500,186.182 110.500 C 186.388 110.500,186.566 110.367,186.616 110.176 C 186.677 109.943,186.872 109.837,187.309 109.801 C 187.793 109.760,187.927 109.674,187.970 109.375 C 188.016 109.051,188.123 109.000,188.762 109.000 L 189.500 109.000 189.500 102.500 L 189.500 96.000 192.307 96.000 L 195.113 96.000 195.303 95.583 C 195.407 95.354,195.607 95.167,195.746 95.167 C 195.889 95.167,196.000 95.021,196.000 94.833 C 196.000 94.611,196.111 94.500,196.333 94.500 C 196.556 94.500,196.667 94.389,196.667 94.167 C 196.667 93.954,196.778 93.833,196.973 93.833 C 197.142 93.833,197.365 93.646,197.470 93.417 C 197.574 93.188,197.778 93.000,197.923 93.000 C 198.126 93.000,198.175 92.856,198.135 92.375 L 198.083 91.750 186.865 91.707 L 175.647 91.664 175.699 92.374 M201.167 100.000 L 201.167 108.333 209.083 108.333 C 216.794 108.333,217.000 108.325,217.000 108.012 C 217.000 107.805,217.134 107.671,217.375 107.637 C 217.616 107.602,217.769 107.449,217.803 107.208 C 217.837 106.967,217.971 106.833,218.178 106.833 C 218.389 106.833,218.500 106.718,218.500 106.500 C 218.500 106.278,218.611 106.167,218.833 106.167 C 219.052 106.167,219.167 106.056,219.167 105.845 C 219.167 105.638,219.301 105.504,219.542 105.470 C 219.776 105.437,219.936 105.283,219.968 105.059 C 219.996 104.862,220.170 104.661,220.354 104.613 C 220.621 104.543,220.679 104.411,220.636 103.971 L 220.583 103.417 213.708 103.373 L 206.833 103.330 206.833 102.915 L 206.833 102.500 211.167 102.500 C 215.337 102.500,215.500 102.488,215.500 102.178 C 215.500 101.971,215.634 101.837,215.875 101.803 C 216.116 101.769,216.269 101.616,216.303 101.375 C 216.337 101.134,216.471 101.000,216.678 101.000 C 216.889 101.000,217.000 100.885,217.000 100.667 C 217.000 100.439,217.111 100.333,217.349 100.333 C 217.552 100.333,217.733 100.200,217.781 100.015 C 217.827 99.841,218.007 99.660,218.182 99.614 C 218.451 99.544,218.500 99.375,218.500 98.516 L 218.500 97.500 212.667 97.500 L 206.833 97.500 206.833 96.750 L 206.833 96.000 212.557 96.000 L 218.280 96.000 218.470 95.583 C 218.574 95.354,218.774 95.167,218.913 95.167 C 219.098 95.167,219.167 94.986,219.167 94.500 C 219.167 93.900,219.208 93.833,219.583 93.833 C 219.889 93.833,220.000 93.744,220.000 93.500 C 220.000 93.278,220.111 93.167,220.333 93.167 C 220.617 93.167,220.667 93.056,220.667 92.417 L 220.667 91.667 210.917 91.667 L 201.167 91.667 201.167 100.000 M224.333 101.417 L 224.333 111.167 225.000 111.167 C 225.556 111.167,225.667 111.111,225.667 110.833 C 225.667 110.549,225.778 110.500,226.417 110.500 C 227.048 110.500,227.167 110.449,227.167 110.177 C 227.167 109.923,227.302 109.842,227.792 109.802 C 228.251 109.764,228.460 109.651,228.581 109.375 C 228.672 109.169,228.878 109.000,229.040 109.000 C 229.222 109.000,229.333 108.874,229.333 108.667 C 229.333 108.444,229.444 108.333,229.667 108.333 C 229.985 108.333,230.000 108.222,230.000 105.833 L 230.000 103.333 233.981 103.333 C 237.821 103.333,237.964 103.345,238.048 103.667 C 238.100 103.866,238.276 104.000,238.484 104.000 C 238.722 104.000,238.833 104.106,238.833 104.333 C 238.833 104.556,238.944 104.667,239.167 104.667 C 239.480 104.667,239.500 104.778,239.500 106.500 L 239.500 108.333 242.417 108.333 L 245.333 108.333 245.333 105.347 C 245.333 102.114,245.292 101.833,244.816 101.833 C 244.611 101.833,244.500 101.716,244.500 101.500 C 244.500 101.278,244.389 101.167,244.167 101.167 C 243.944 101.167,243.833 101.056,243.833 100.833 C 243.833 100.650,243.743 100.500,243.633 100.500 C 243.478 100.500,243.478 100.456,243.633 100.300 C 243.743 100.190,243.833 99.815,243.833 99.467 C 243.833 98.944,243.892 98.833,244.167 98.833 C 244.385 98.833,244.500 98.722,244.500 98.512 C 244.500 98.305,244.634 98.171,244.875 98.137 C 245.552 98.040,245.508 95.333,244.830 95.333 C 244.606 95.333,244.500 95.221,244.500 94.984 C 244.500 94.776,244.366 94.600,244.167 94.548 C 243.982 94.500,243.833 94.321,243.833 94.147 C 243.833 93.944,243.715 93.833,243.500 93.833 C 243.243 93.833,243.167 93.722,243.167 93.345 C 243.167 92.873,242.805 92.333,242.488 92.333 C 242.403 92.333,242.333 92.183,242.333 92.000 C 242.333 91.671,242.222 91.667,233.333 91.667 L 224.333 91.667 224.333 101.417 M245.333 92.348 C 245.333 92.891,245.402 93.049,245.667 93.118 C 245.851 93.167,246.000 93.346,246.000 93.519 C 246.000 93.727,246.118 93.833,246.349 93.833 C 246.558 93.833,246.733 93.967,246.785 94.167 C 246.833 94.351,247.012 94.500,247.186 94.500 C 247.394 94.500,247.500 94.618,247.500 94.849 C 247.500 95.058,247.634 95.233,247.833 95.285 C 248.018 95.333,248.167 95.512,248.167 95.686 C 248.167 95.980,248.331 96.000,250.750 96.000 L 253.333 96.000 253.333 103.583 L 253.333 111.167 254.417 111.167 C 255.389 111.167,255.500 111.132,255.500 110.833 C 255.500 110.556,255.611 110.500,256.167 110.500 C 256.707 110.500,256.833 110.441,256.833 110.188 C 256.833 109.952,256.999 109.849,257.517 109.767 C 258.002 109.689,258.225 109.562,258.286 109.329 C 258.334 109.148,258.513 109.000,258.686 109.000 C 258.889 109.000,259.000 108.882,259.000 108.667 C 259.000 108.422,259.111 108.333,259.417 108.333 L 259.833 108.333 259.833 102.167 L 259.833 96.000 262.333 96.000 C 264.722 96.000,264.833 95.985,264.833 95.667 C 264.833 95.444,264.944 95.333,265.167 95.333 C 265.411 95.333,265.500 95.222,265.500 94.917 C 265.500 94.583,265.583 94.500,265.917 94.500 C 266.222 94.500,266.333 94.411,266.333 94.167 C 266.333 93.944,266.444 93.833,266.667 93.833 C 266.885 93.833,267.000 93.722,267.000 93.512 C 267.000 93.305,267.134 93.171,267.375 93.137 C 267.693 93.091,267.750 92.981,267.750 92.417 L 267.750 91.750 256.542 91.707 L 245.333 91.664 245.333 92.348 M270.667 101.417 L 270.667 111.167 271.682 111.167 C 272.558 111.167,272.710 111.121,272.785 110.833 C 272.833 110.649,273.012 110.500,273.186 110.500 C 273.386 110.500,273.500 110.382,273.500 110.176 C 273.500 109.915,273.636 109.843,274.208 109.801 C 274.797 109.759,274.926 109.687,274.970 109.375 C 275.015 109.057,275.125 109.000,275.694 109.000 C 276.224 109.000,276.383 108.930,276.452 108.667 C 276.500 108.482,276.679 108.333,276.853 108.333 C 277.146 108.333,277.167 108.171,277.167 105.833 L 277.167 103.333 281.167 103.333 C 285.056 103.333,285.167 103.343,285.167 103.667 C 285.167 103.889,285.278 104.000,285.500 104.000 C 285.816 104.000,285.833 104.111,285.833 106.167 L 285.833 108.333 289.083 108.333 L 292.333 108.333 292.333 105.417 C 292.333 102.611,292.321 102.500,292.000 102.500 C 291.778 102.500,291.667 102.389,291.667 102.167 C 291.667 101.944,291.556 101.833,291.333 101.833 C 291.111 101.833,291.000 101.722,291.000 101.500 C 291.000 101.256,290.889 101.167,290.583 101.167 C 289.980 101.167,289.940 99.722,290.542 99.637 C 290.776 99.603,290.936 99.449,290.968 99.225 C 290.996 99.028,291.165 98.829,291.343 98.783 C 291.586 98.719,291.667 98.552,291.667 98.110 C 291.667 97.669,291.750 97.496,292.000 97.417 C 292.250 97.337,292.333 97.164,292.333 96.723 C 292.333 96.276,292.254 96.115,292.000 96.048 C 291.816 96.000,291.667 95.821,291.667 95.647 C 291.667 95.452,291.549 95.333,291.355 95.333 C 291.118 95.333,291.016 95.168,290.933 94.650 C 290.856 94.165,290.729 93.941,290.495 93.880 C 290.315 93.833,290.167 93.653,290.167 93.481 C 290.167 93.278,290.049 93.167,289.833 93.167 C 289.606 93.167,289.500 93.056,289.500 92.818 C 289.500 92.615,289.367 92.434,289.182 92.386 C 289.007 92.340,288.827 92.159,288.781 91.985 C 288.701 91.677,288.412 91.667,279.682 91.667 L 270.667 91.667 270.667 101.417 M298.219 91.985 C 298.173 92.159,297.993 92.340,297.818 92.386 C 297.633 92.434,297.500 92.615,297.500 92.818 C 297.500 93.048,297.394 93.167,297.186 93.167 C 297.012 93.167,296.833 93.316,296.785 93.500 C 296.733 93.699,296.558 93.833,296.349 93.833 C 296.118 93.833,296.000 93.940,296.000 94.147 C 296.000 94.321,295.851 94.500,295.667 94.548 C 295.339 94.634,295.333 94.776,295.333 102.901 L 295.333 111.167 296.417 111.167 C 297.389 111.167,297.500 111.132,297.500 110.833 C 297.500 110.562,297.611 110.500,298.099 110.500 C 298.552 110.500,298.719 110.421,298.783 110.176 C 298.829 109.998,299.028 109.829,299.225 109.801 C 299.449 109.769,299.603 109.610,299.637 109.375 C 299.682 109.057,299.792 109.000,300.361 109.000 C 300.891 109.000,301.049 108.930,301.118 108.667 C 301.167 108.482,301.346 108.333,301.519 108.333 C 301.811 108.333,301.833 108.177,301.833 106.167 L 301.833 104.000 305.833 104.000 L 309.833 104.000 309.833 106.167 L 309.833 108.333 312.667 108.333 L 315.500 108.333 315.500 101.417 C 315.500 94.611,315.495 94.500,315.167 94.500 C 314.944 94.500,314.833 94.389,314.833 94.167 C 314.833 93.944,314.722 93.833,314.500 93.833 C 314.278 93.833,314.167 93.722,314.167 93.500 C 314.167 93.256,314.056 93.167,313.750 93.167 C 313.417 93.167,313.333 93.083,313.333 92.750 C 313.333 92.444,313.244 92.333,313.000 92.333 C 312.778 92.333,312.667 92.222,312.667 92.000 C 312.667 91.489,298.353 91.474,298.219 91.985 M320.000 100.000 L 320.000 108.333 328.667 108.333 L 337.333 108.333 337.333 107.917 C 337.333 107.611,337.422 107.500,337.667 107.500 C 337.944 107.500,338.000 107.389,338.000 106.833 C 338.000 106.290,338.059 106.167,338.316 106.167 C 338.675 106.167,338.833 105.856,338.833 105.153 C 338.833 104.778,338.909 104.667,339.167 104.667 C 339.443 104.667,339.500 104.556,339.500 104.019 C 339.500 103.512,339.572 103.353,339.833 103.285 C 340.098 103.216,340.167 103.058,340.167 102.516 C 340.167 101.899,340.207 101.833,340.583 101.833 C 340.911 101.833,341.000 101.749,341.000 101.436 C 341.000 101.179,341.118 101.008,341.333 100.952 C 341.820 100.824,341.838 99.000,341.352 99.000 C 341.107 99.000,341.013 98.834,340.925 98.250 C 340.837 97.658,340.745 97.500,340.490 97.500 C 340.223 97.500,340.167 97.382,340.167 96.818 C 340.167 96.276,340.098 96.118,339.833 96.048 C 339.649 96.000,339.500 95.821,339.500 95.647 C 339.500 95.448,339.382 95.333,339.176 95.333 C 338.915 95.333,338.843 95.198,338.801 94.625 C 338.759 94.036,338.687 93.908,338.375 93.863 C 338.057 93.818,338.000 93.708,338.000 93.139 C 338.000 92.609,337.930 92.451,337.667 92.382 C 337.482 92.333,337.333 92.154,337.333 91.981 C 337.333 91.677,337.043 91.667,328.667 91.667 L 320.000 91.667 320.000 100.000 M345.333 101.413 L 345.333 111.167 346.000 111.167 C 346.556 111.167,346.667 111.111,346.667 110.833 C 346.667 110.549,346.778 110.500,347.417 110.500 C 348.048 110.500,348.167 110.449,348.167 110.176 C 348.167 109.915,348.302 109.843,348.875 109.801 C 349.464 109.759,349.592 109.687,349.637 109.375 C 349.681 109.059,349.793 109.000,350.342 109.000 C 351.224 109.000,351.183 109.473,351.130 100.000 L 351.083 91.750 348.208 91.704 L 345.333 91.659 345.333 101.413 M355.500 101.417 L 355.500 111.167 356.500 111.167 C 357.389 111.167,357.500 111.130,357.500 110.833 C 357.500 110.589,357.611 110.500,357.917 110.500 C 358.218 110.500,358.333 110.410,358.333 110.176 C 358.333 109.915,358.469 109.843,359.042 109.801 C 359.631 109.759,359.759 109.687,359.803 109.375 C 359.848 109.059,359.959 109.000,360.512 109.000 C 361.048 109.000,361.167 108.942,361.167 108.678 C 361.167 108.471,361.301 108.337,361.542 108.303 C 361.916 108.250,361.917 108.242,361.962 104.625 C 362.004 101.183,362.023 101.000,362.325 101.000 C 362.528 101.000,362.663 101.136,362.697 101.375 C 362.731 101.616,362.884 101.769,363.125 101.803 C 363.366 101.837,363.500 101.971,363.500 102.178 C 363.500 102.442,363.619 102.500,364.155 102.500 C 364.708 102.500,364.818 102.559,364.863 102.875 C 364.898 103.116,365.051 103.269,365.292 103.303 C 365.533 103.337,365.667 103.471,365.667 103.678 C 365.667 103.889,365.782 104.000,366.000 104.000 C 366.222 104.000,366.333 104.111,366.333 104.333 C 366.333 104.556,366.444 104.667,366.667 104.667 C 366.888 104.667,367.000 104.778,367.000 104.997 C 367.000 105.207,367.146 105.364,367.401 105.428 C 367.621 105.483,367.839 105.672,367.885 105.847 C 367.948 106.087,368.118 106.167,368.568 106.167 C 369.056 106.167,369.167 106.229,369.167 106.500 C 369.167 106.744,369.278 106.833,369.583 106.833 C 369.917 106.833,370.000 106.917,370.000 107.250 C 370.000 107.556,370.089 107.667,370.333 107.667 C 370.557 107.667,370.667 107.778,370.667 108.004 C 370.667 108.331,370.752 108.340,373.542 108.296 L 376.417 108.250 376.460 99.958 L 376.503 91.667 373.252 91.667 L 370.000 91.667 370.000 95.401 C 370.000 99.099,369.997 99.135,369.654 99.045 C 369.464 98.995,369.240 98.777,369.158 98.561 C 369.076 98.344,368.903 98.167,368.774 98.167 C 368.644 98.167,368.500 98.017,368.452 97.833 C 368.382 97.568,368.224 97.500,367.682 97.500 C 367.101 97.500,367.000 97.448,367.000 97.151 C 367.000 96.942,366.866 96.767,366.667 96.715 C 366.482 96.667,366.333 96.488,366.333 96.314 C 366.333 96.090,366.214 96.000,365.917 96.000 C 365.611 96.000,365.500 95.911,365.500 95.667 C 365.500 95.444,365.389 95.333,365.167 95.333 C 364.948 95.333,364.833 95.222,364.833 95.010 C 364.833 94.755,364.676 94.663,364.083 94.575 C 363.499 94.487,363.333 94.393,363.333 94.148 C 363.333 93.944,363.216 93.833,363.000 93.833 C 362.778 93.833,362.667 93.722,362.667 93.500 C 362.667 93.282,362.556 93.167,362.345 93.167 C 362.138 93.167,362.004 93.033,361.970 92.792 C 361.936 92.551,361.783 92.398,361.542 92.363 C 361.301 92.329,361.167 92.195,361.167 91.988 C 361.167 91.683,361.022 91.667,358.333 91.667 L 355.500 91.667 355.500 101.417 M383.000 91.981 C 383.000 92.154,382.851 92.333,382.667 92.382 C 382.467 92.434,382.333 92.609,382.333 92.818 C 382.333 93.079,382.228 93.167,381.917 93.167 C 381.611 93.167,381.500 93.256,381.500 93.500 C 381.500 93.722,381.389 93.833,381.167 93.833 C 380.948 93.833,380.833 93.944,380.833 94.155 C 380.833 94.333,380.692 94.522,380.520 94.577 C 380.055 94.725,380.000 95.290,380.002 99.896 C 380.004 104.678,380.067 105.333,380.522 105.333 C 380.727 105.333,380.833 105.453,380.833 105.682 C 380.833 105.885,380.966 106.066,381.151 106.114 C 381.326 106.160,381.507 106.341,381.552 106.515 C 381.601 106.700,381.781 106.833,381.984 106.833 C 382.217 106.833,382.333 106.940,382.333 107.152 C 382.333 107.394,382.494 107.498,383.000 107.583 C 383.506 107.669,383.667 107.773,383.667 108.015 C 383.667 108.323,383.877 108.333,390.167 108.333 C 396.477 108.333,396.667 108.324,396.667 108.012 C 396.667 107.805,396.801 107.671,397.042 107.637 C 397.283 107.602,397.436 107.449,397.470 107.208 C 397.504 106.967,397.638 106.833,397.845 106.833 C 398.056 106.833,398.167 106.718,398.167 106.500 C 398.167 106.278,398.278 106.167,398.500 106.167 C 398.718 106.167,398.833 106.056,398.833 105.845 C 398.833 105.638,398.967 105.504,399.208 105.470 L 399.583 105.417 399.628 101.458 L 399.673 97.500 393.503 97.500 L 387.333 97.500 387.333 98.489 C 387.333 99.323,387.384 99.494,387.658 99.581 C 387.837 99.637,388.029 99.830,388.086 100.009 C 388.143 100.187,388.334 100.333,388.511 100.333 C 388.722 100.333,388.833 100.448,388.833 100.667 C 388.833 100.889,388.944 101.000,389.167 101.000 C 389.379 101.000,389.500 101.111,389.500 101.307 C 389.500 101.475,389.688 101.699,389.917 101.803 C 390.146 101.907,390.333 102.107,390.333 102.246 C 390.333 102.457,390.628 102.500,392.083 102.500 L 393.833 102.500 393.833 102.917 L 393.833 103.333 390.250 103.333 L 386.667 103.333 386.667 99.667 L 386.667 96.000 392.083 96.000 C 397.389 96.000,397.500 95.993,397.500 95.667 C 397.500 95.444,397.611 95.333,397.833 95.333 C 398.078 95.333,398.167 95.222,398.167 94.917 C 398.167 94.611,398.256 94.500,398.500 94.500 C 398.722 94.500,398.833 94.389,398.833 94.167 C 398.833 93.922,398.944 93.833,399.250 93.833 C 399.556 93.833,399.667 93.744,399.667 93.500 C 399.667 93.317,399.742 93.167,399.833 93.167 C 399.925 93.167,400.000 92.829,400.000 92.417 L 400.000 91.667 391.500 91.667 C 383.287 91.667,383.000 91.677,383.000 91.981 M238.000 96.333 C 238.000 96.578,238.111 96.667,238.417 96.667 C 238.750 96.667,238.833 96.750,238.833 97.083 C 238.833 97.417,238.750 97.500,238.417 97.500 C 238.111 97.500,238.000 97.589,238.000 97.833 C 238.000 98.157,237.889 98.167,234.000 98.167 L 230.000 98.167 230.000 97.083 L 230.000 96.000 234.000 96.000 C 237.889 96.000,238.000 96.009,238.000 96.333 M284.500 96.333 C 284.500 96.556,284.611 96.667,284.833 96.667 C 285.078 96.667,285.167 96.778,285.167 97.083 C 285.167 97.389,285.078 97.500,284.833 97.500 C 284.611 97.500,284.500 97.611,284.500 97.833 C 284.500 98.157,284.389 98.167,280.833 98.167 L 277.167 98.167 277.167 97.083 L 277.167 96.000 280.833 96.000 C 284.389 96.000,284.500 96.010,284.500 96.333 M309.833 97.417 L 309.833 98.833 305.833 98.833 L 301.833 98.833 301.833 97.417 L 301.833 96.000 305.833 96.000 L 309.833 96.000 309.833 97.417 M332.333 96.333 C 332.333 96.556,332.444 96.667,332.667 96.667 C 332.946 96.667,333.000 96.778,333.000 97.349 C 333.000 97.891,333.068 98.049,333.333 98.118 C 333.518 98.167,333.667 98.346,333.667 98.519 C 333.667 98.743,333.786 98.833,334.083 98.833 C 334.679 98.833,334.714 100.160,334.125 100.419 C 333.849 100.540,333.736 100.749,333.698 101.208 C 333.658 101.698,333.577 101.833,333.323 101.833 C 333.051 101.833,333.000 101.952,333.000 102.583 L 333.000 103.333 329.333 103.333 L 325.667 103.333 325.667 99.667 L 325.667 96.000 329.000 96.000 C 332.222 96.000,332.333 96.011,332.333 96.333 " stroke="none" fill="#040404" fill-rule="evenodd"></path><path id="path3" d="" stroke="none" fill="#185c3c" fill-rule="evenodd"></path><path id="path4" d="" stroke="none" fill="#180440" fill-rule="evenodd"></path><path id="path5" d="" stroke="none" fill="#1c0404" fill-rule="evenodd"></path><path id="path6" d="" stroke="none" fill="#080404" fill-rule="evenodd"></path><path id="path7" d="" stroke="none" fill="#080404" fill-rule="evenodd"></path><path id="path8" d="" stroke="none" fill="#080404" fill-rule="evenodd"></path></g></svg>